<svg xmlns="http://www.w3.org/2000/svg" xmlns:xlink="http://www.w3.org/1999/xlink" xmlns:lucid="lucid" width="1563" height="2038"><g transform="translate(1064 -269)" lucid:page-tab-id="m-5o7ONTd-nK"><path d="M-1040 509.3a8 8 0 0 1 8-8H472a8 8 0 0 1 8 8v1764a8 8 0 0 1-8 8h-1504a8 8 0 0 1-8-8z" stroke="#000" stroke-width="10" fill="#fff"/><path d="M-510 308a8 8 0 0 1 8-8h444a8 8 0 0 1 8 8v124a8 8 0 0 1-8 8h-444a8 8 0 0 1-8-8z" stroke="#000" stroke-width="4" fill="#f4d9ff"/><use xlink:href="#a" transform="matrix(1,0,0,1,-505,305) translate(58.21940104166663 88.95833333333334)"/><path d="M-552 551.34c-8.84 0-16 26.86-16 60 0 33.13 7.16 60 16 60h-144c-8.84 0-16-26.87-16-60 0-33.14 7.16-60 16-60z" stroke="#3a414a" stroke-width="4" fill="#b8f5ed"/><use xlink:href="#b" transform="matrix(1,0,0,1,-707,556.3355461309832) translate(14.331705729166657 61.270833333333336)"/><use xlink:href="#c" transform="matrix(1,0,0,1,-707,556.3355461309832) translate(64.6865234375 61.270833333333336)"/><path d="M-632 676.34v36" stroke="#000" stroke-width="6" fill="none"/><path d="M-629.02 676.4H-635v-3.06h5.96z" stroke="#000" stroke-width=".05"/><path d="M-632 729.6l-4.63-14.27h9.26z" stroke="#000" stroke-width="6"/><path d="M-712 749.3a8 8 0 0 1 8-8h144a8 8 0 0 1 8 8v160.46a8 8 0 0 1-8 8h-144a8 8 0 0 1-8-8z" stroke="#000" stroke-width="4" fill="#fff"/><use xlink:href="#d" transform="matrix(1,0,0,1,-700,753.3075542308305) translate(7.83447265625 17.4375)"/><use xlink:href="#e" transform="matrix(1,0,0,1,-700,753.3075542308305) translate(50.07470703125 17.4375)"/><use xlink:href="#f" transform="matrix(1,0,0,1,-700,753.3075542308305) translate(107.37939453125 17.4375)"/><use xlink:href="#g" transform="matrix(1,0,0,1,-700,753.3075542308305) translate(6.951171875 43.572656249999994)"/><use xlink:href="#h" transform="matrix(1,0,0,1,-700,753.3075542308305) translate(55.0185546875 43.572656249999994)"/><use xlink:href="#i" transform="matrix(1,0,0,1,-700,753.3075542308305) translate(91.5810546875 43.572656249999994)"/><use xlink:href="#j" transform="matrix(1,0,0,1,-700,753.3075542308305) translate(107.779296875 43.572656249999994)"/><use xlink:href="#k" transform="matrix(1,0,0,1,-700,753.3075542308305) translate(2.17431640625 69.70781249999999)"/><use xlink:href="#l" transform="matrix(1,0,0,1,-700,753.3075542308305) translate(63.35498046875 69.70781249999999)"/><use xlink:href="#m" transform="matrix(1,0,0,1,-700,753.3075542308305) translate(92.12158203125 69.70781249999999)"/><use xlink:href="#g" transform="matrix(1,0,0,1,-700,753.3075542308305) translate(0.89990234375 95.84296875)"/><use xlink:href="#n" transform="matrix(1,0,0,1,-700,753.3075542308305) translate(48.96728515625 95.84296875)"/><use xlink:href="#o" transform="matrix(1,0,0,1,-700,753.3075542308305) translate(92.09521484375 95.84296875)"/><use xlink:href="#p" transform="matrix(1,0,0,1,-700,753.3075542308305) translate(19.8447265625 121.97812499999999)"/><use xlink:href="#q" transform="matrix(1,0,0,1,-700,753.3075542308305) translate(36.658203125 148.11328125)"/><path d="M-980 1090.82a8 8 0 0 1 8-8h216a8 8 0 0 1 8 8v809.46a8 8 0 0 1-8 8h-216a8 8 0 0 1-8-8z" stroke="#000" stroke-width="4" fill="#cfe4ff"/><path d="M-748 1090.82a8 8 0 0 1 8-8h216a8 8 0 0 1 8 8v809.46a8 8 0 0 1-8 8h-216a8 8 0 0 1-8-8z" stroke="#000" stroke-width="4" fill="#e3fae3"/><path d="M-516 1090.82a8 8 0 0 1 8-8h216a8 8 0 0 1 8 8v809.46a8 8 0 0 1-8 8h-216a8 8 0 0 1-8-8z" stroke="#000" stroke-width="4" fill="#ffd9d9"/><path d="M-980 1082.82v-32a8 8 0 0 1 8-8h224v40z" stroke="#000" stroke-width="4" fill="#1071e5"/><path d="M-748 1042.82h232v40h-232z" stroke="#000" stroke-width="4" fill="#54c45e"/><path d="M-516 1042.82h224a8 8 0 0 1 8 8v32h-232z" stroke="#000" stroke-width="4" fill="#e81313"/><path d="M-748 1908.28h-224a8 8 0 0 1-8-8v-817.46h232zM-748 1082.82h232v825.46h-232zM-284 1082.82v817.46a8 8 0 0 1-8 8h-224v-825.46z" stroke="#000" stroke-width="4" fill="none"/><path d="M-980 977.17a8 8 0 0 1 8-8h253.5a8 8 0 0 1 8 8v45.65a8 8 0 0 1-8 8H-972a8 8 0 0 1-8-8z"/><use xlink:href="#r" transform="matrix(1,0,0,1,-968,981.1753869894695) translate(0 30.317274305555557)"/><use xlink:href="#s" transform="matrix(1,0,0,1,-968,981.1753869894695) translate(47.77560763888889 30.317274305555557)"/><use xlink:href="#t" transform="matrix(1,0,0,1,-968,981.1753869894695) translate(157.12022569444443 30.317274305555557)"/><use xlink:href="#u" transform="matrix(1,0,0,1,-980,1042.8186161561362) translate(81.6083984375 26.5478515625)"/><use xlink:href="#v" transform="matrix(1,0,0,1,-980,1042.8186161561362) translate(124.5869140625 26.5478515625)"/><use xlink:href="#w" transform="matrix(1,0,0,1,-748,1042.8186161561362) translate(73.8037109375 26.5478515625)"/><use xlink:href="#x" transform="matrix(1,0,0,1,-748,1042.8186161561362) translate(131.1171875 26.5478515625)"/><use xlink:href="#y" transform="matrix(1,0,0,1,-516.0000000000001,1042.8186161561362) translate(84.1748046875 26.5478515625)"/><use xlink:href="#z" transform="matrix(1,0,0,1,-516.0000000000001,1042.8186161561362) translate(122.1083984375 26.5478515625)"/><path d="M-344.34 1102.82c22.28 0 40.34 18.06 40.34 40.34 0 22.28-18.06 40.34-40.34 40.34h-111.32c-22.28 0-40.34-18.06-40.34-40.34 0-22.28 18.06-40.34 40.34-40.34z" stroke="#000" stroke-width="4" fill="#fe7070"/><use xlink:href="#A" transform="matrix(1,0,0,1,-491,1107.8186161561364) translate(38.6199001736111 43.64930555555556)"/><use xlink:href="#B" transform="matrix(1,0,0,1,-491,1107.8186161561364) translate(110.84320746527779 43.64930555555556)"/><path d="M-344.34 1203.5c22.28 0 40.34 18.06 40.34 40.34 0 22.28-18.06 40.34-40.34 40.34h-111.32c-22.28 0-40.34-18.06-40.34-40.34 0-22.28 18.06-40.34 40.34-40.34z" stroke="#000" stroke-width="4" fill="#fe7070"/><use xlink:href="#A" transform="matrix(1,0,0,1,-491,1208.50089412225) translate(41.591905381944436 43.64930555555556)"/><use xlink:href="#C" transform="matrix(1,0,0,1,-491,1208.50089412225) translate(113.81521267361111 43.64930555555556)"/><path d="M-344.34 1304.18c22.28 0 40.34 18.06 40.34 40.34 0 22.28-18.06 40.35-40.34 40.35h-111.32c-22.28 0-40.34-18.07-40.34-40.35s18.06-40.34 40.34-40.34z" stroke="#000" stroke-width="4" fill="#fe7070"/><use xlink:href="#A" transform="matrix(1,0,0,1,-491,1309.183172088364) translate(39.16297743055554 43.64930555555556)"/><use xlink:href="#D" transform="matrix(1,0,0,1,-491,1309.183172088364) translate(111.38628472222223 43.64930555555556)"/><path d="M-344.34 1404.87c22.28 0 40.34 18.06 40.34 40.34 0 22.3-18.06 40.35-40.34 40.35h-111.32c-22.28 0-40.34-18.06-40.34-40.34 0-22.27 18.06-40.34 40.34-40.34z" stroke="#000" stroke-width="4" fill="#fe7070"/><use xlink:href="#A" transform="matrix(1,0,0,1,-491,1409.8654500544774) translate(38.97200520833332 43.64930555555556)"/><use xlink:href="#E" transform="matrix(1,0,0,1,-491,1409.8654500544774) translate(111.1953125 43.64930555555556)"/><path d="M-344.34 1505.55c22.28 0 40.34 18.06 40.34 40.34 0 22.27-18.06 40.33-40.34 40.33h-111.32c-22.28 0-40.34-18.06-40.34-40.34 0-22.3 18.06-40.35 40.34-40.35z" stroke="#000" stroke-width="4" fill="#fe7070"/><use xlink:href="#A" transform="matrix(1,0,0,1,-491,1510.5477280205919) translate(38.59602864583332 43.64930555555556)"/><use xlink:href="#F" transform="matrix(1,0,0,1,-491,1510.5477280205919) translate(110.8193359375 43.64930555555556)"/><path d="M-344.34 1606.23c22.28 0 40.34 18.06 40.34 40.34 0 22.28-18.06 40.34-40.34 40.34h-111.32c-22.28 0-40.34-18.05-40.34-40.33 0-22.28 18.06-40.34 40.34-40.34z" stroke="#000" stroke-width="4" fill="#fe7070"/><use xlink:href="#A" transform="matrix(1,0,0,1,-491,1611.230005986705) translate(39.0495876736111 43.64930555555556)"/><use xlink:href="#G" transform="matrix(1,0,0,1,-491,1611.230005986705) translate(111.27289496527779 43.64930555555556)"/><path d="M-344.34 1706.9c22.28 0 40.34 18.07 40.34 40.35s-18.06 40.35-40.34 40.35h-111.32c-22.28 0-40.34-18.07-40.34-40.35s18.06-40.34 40.34-40.34z" stroke="#000" stroke-width="4" fill="#fe7070"/><use xlink:href="#A" transform="matrix(1,0,0,1,-491,1711.9122839528188) translate(38.92426215277777 43.64930555555556)"/><use xlink:href="#H" transform="matrix(1,0,0,1,-491,1711.9122839528188) translate(111.14756944444446 43.64930555555556)"/><path d="M-344.34 1807.6c22.28 0 40.34 18.06 40.34 40.34 0 22.27-18.06 40.34-40.34 40.34h-111.32c-22.28 0-40.34-18.07-40.34-40.34 0-22.28 18.06-40.35 40.34-40.35z" stroke="#000" stroke-width="4" fill="#fe7070"/><use xlink:href="#A" transform="matrix(1,0,0,1,-491,1812.5945619189326) translate(39.75379774305554 43.64930555555556)"/><use xlink:href="#I" transform="matrix(1,0,0,1,-491,1812.5945619189326) translate(111.97710503472223 43.64930555555556)"/><path d="M-576.34 1102.82c22.28 0 40.34 18.06 40.34 40.34 0 22.28-18.06 40.34-40.34 40.34h-111.32c-22.28 0-40.34-18.06-40.34-40.34 0-22.28 18.06-40.34 40.34-40.34z" stroke="#000" stroke-width="4" fill="#c3f7c8"/><use xlink:href="#A" transform="matrix(1,0,0,1,-723,1107.8186161561364) translate(37.474066840277764 43.64930555555556)"/><use xlink:href="#J" transform="matrix(1,0,0,1,-723,1107.8186161561364) translate(109.69737413194446 43.64930555555556)"/><path d="M-576.34 1203.5c22.28 0 40.34 18.06 40.34 40.34 0 22.28-18.06 40.34-40.34 40.34h-111.32c-22.28 0-40.34-18.06-40.34-40.34 0-22.28 18.06-40.34 40.34-40.34z" stroke="#000" stroke-width="4" fill="#c3f7c8"/><use xlink:href="#A" transform="matrix(1,0,0,1,-723,1208.50089412225) translate(40.4460720486111 43.64930555555556)"/><use xlink:href="#K" transform="matrix(1,0,0,1,-723,1208.50089412225) translate(112.66937934027779 43.64930555555556)"/><path d="M-576.34 1304.18c22.28 0 40.34 18.06 40.34 40.34 0 22.28-18.06 40.35-40.34 40.35h-111.32c-22.28 0-40.34-18.07-40.34-40.35s18.06-40.34 40.34-40.34z" stroke="#000" stroke-width="4" fill="#c3f7c8"/><use xlink:href="#A" transform="matrix(1,0,0,1,-723,1309.183172088364) translate(38.017144097222214 43.64930555555556)"/><use xlink:href="#L" transform="matrix(1,0,0,1,-723,1309.183172088364) translate(110.2404513888889 43.64930555555556)"/><path d="M-576.34 1404.87c22.28 0 40.34 18.06 40.34 40.34 0 22.3-18.06 40.35-40.34 40.35h-111.32c-22.28 0-40.34-18.06-40.34-40.34 0-22.27 18.06-40.34 40.34-40.34z" stroke="#000" stroke-width="4" fill="#c3f7c8"/><use xlink:href="#A" transform="matrix(1,0,0,1,-723,1409.8654500544774) translate(37.826171874999986 43.64930555555556)"/><use xlink:href="#M" transform="matrix(1,0,0,1,-723,1409.8654500544774) translate(110.04947916666667 43.64930555555556)"/><path d="M-576.34 1505.55c22.28 0 40.34 18.06 40.34 40.34 0 22.27-18.06 40.33-40.34 40.33h-111.32c-22.28 0-40.34-18.06-40.34-40.34 0-22.3 18.06-40.35 40.34-40.35z" stroke="#000" stroke-width="4" fill="#c3f7c8"/><use xlink:href="#A" transform="matrix(1,0,0,1,-723,1510.5477280205919) translate(37.450195312499986 43.64930555555556)"/><use xlink:href="#N" transform="matrix(1,0,0,1,-723,1510.5477280205919) translate(109.67350260416667 43.64930555555556)"/><path d="M-576.34 1606.23c22.28 0 40.34 18.06 40.34 40.34 0 22.28-18.06 40.34-40.34 40.34h-111.32c-22.28 0-40.34-18.05-40.34-40.33 0-22.28 18.06-40.34 40.34-40.34z" stroke="#000" stroke-width="4" fill="#c3f7c8"/><use xlink:href="#A" transform="matrix(1,0,0,1,-723,1611.230005986705) translate(37.903754340277764 43.64930555555556)"/><use xlink:href="#O" transform="matrix(1,0,0,1,-723,1611.230005986705) translate(110.12706163194446 43.64930555555556)"/><path d="M-576.34 1706.9c22.28 0 40.34 18.07 40.34 40.35s-18.06 40.35-40.34 40.35h-111.32c-22.28 0-40.34-18.07-40.34-40.35s18.06-40.34 40.34-40.34z" stroke="#000" stroke-width="4" fill="#c3f7c8"/><use xlink:href="#A" transform="matrix(1,0,0,1,-723,1711.9122839528188) translate(37.77842881944443 43.64930555555556)"/><use xlink:href="#P" transform="matrix(1,0,0,1,-723,1711.9122839528188) translate(110.00173611111111 43.64930555555556)"/><path d="M-576.34 1807.6c22.28 0 40.34 18.06 40.34 40.34 0 22.27-18.06 40.34-40.34 40.34h-111.32c-22.28 0-40.34-18.07-40.34-40.34 0-22.28 18.06-40.35 40.34-40.35z" stroke="#000" stroke-width="4" fill="#c3f7c8"/><use xlink:href="#A" transform="matrix(1,0,0,1,-723,1812.5945619189326) translate(38.607964409722214 43.64930555555556)"/><use xlink:href="#Q" transform="matrix(1,0,0,1,-723,1812.5945619189326) translate(110.8312717013889 43.64930555555556)"/><path d="M-808.34 1102.82c22.28 0 40.34 18.06 40.34 40.34 0 22.28-18.06 40.34-40.34 40.34h-111.32c-22.28 0-40.34-18.06-40.34-40.34 0-22.28 18.06-40.34 40.34-40.34z" stroke="#000" stroke-width="4" fill="#6db1ff"/><use xlink:href="#A" transform="matrix(1,0,0,1,-955,1107.8186161561364) translate(38.56022135416666 43.64930555555556)"/><use xlink:href="#R" transform="matrix(1,0,0,1,-955,1107.8186161561364) translate(110.78352864583334 43.64930555555556)"/><path d="M-808.34 1203.5c22.28 0 40.34 18.06 40.34 40.34 0 22.28-18.06 40.34-40.34 40.34h-111.32c-22.28 0-40.34-18.06-40.34-40.34 0-22.28 18.06-40.34 40.34-40.34z" stroke="#000" stroke-width="4" fill="#6db1ff"/><use xlink:href="#A" transform="matrix(1,0,0,1,-955,1208.50089412225) translate(41.532226562499986 43.64930555555556)"/><use xlink:href="#S" transform="matrix(1,0,0,1,-955,1208.50089412225) translate(113.75553385416667 43.64930555555556)"/><path d="M-808.34 1304.18c22.28 0 40.34 18.06 40.34 40.34 0 22.28-18.06 40.35-40.34 40.35h-111.32c-22.28 0-40.34-18.07-40.34-40.35s18.06-40.34 40.34-40.34z" stroke="#000" stroke-width="4" fill="#6db1ff"/><use xlink:href="#A" transform="matrix(1,0,0,1,-955,1309.183172088364) translate(39.1032986111111 43.64930555555556)"/><use xlink:href="#T" transform="matrix(1,0,0,1,-955,1309.183172088364) translate(111.32660590277779 43.64930555555556)"/><path d="M-808.34 1404.87c22.28 0 40.34 18.06 40.34 40.34 0 22.3-18.06 40.35-40.34 40.35h-111.32c-22.28 0-40.34-18.06-40.34-40.34 0-22.27 18.06-40.34 40.34-40.34z" stroke="#000" stroke-width="4" fill="#6db1ff"/><use xlink:href="#A" transform="matrix(1,0,0,1,-955,1409.8654500544774) translate(38.91232638888888 43.64930555555556)"/><use xlink:href="#U" transform="matrix(1,0,0,1,-955,1409.8654500544774) translate(111.13563368055557 43.64930555555556)"/><path d="M-808.34 1505.55c22.28 0 40.34 18.06 40.34 40.34 0 22.27-18.06 40.33-40.34 40.33h-111.32c-22.28 0-40.34-18.06-40.34-40.34 0-22.3 18.06-40.35 40.34-40.35z" stroke="#000" stroke-width="4" fill="#6db1ff"/><use xlink:href="#A" transform="matrix(1,0,0,1,-955,1510.5477280205919) translate(38.53634982638888 43.64930555555556)"/><use xlink:href="#V" transform="matrix(1,0,0,1,-955,1510.5477280205919) translate(110.75965711805557 43.64930555555556)"/><path d="M-809.24 1608.1c21.25 0 38.48 17.22 38.48 38.47s-17.23 38.48-38.48 38.48h-109.52c-21.25 0-38.48-17.23-38.48-38.48 0-21.25 17.23-38.47 38.48-38.47z" stroke="#000" stroke-width="4" fill="#6db1ff"/><use xlink:href="#A" transform="matrix(1,0,0,1,-952.2413793103448,1613.0945044859736) translate(36.48990885416666 42.52430555555556)"/><use xlink:href="#W" transform="matrix(1,0,0,1,-952.2413793103448,1613.0945044859736) translate(108.71321614583334 42.52430555555556)"/><path d="M-809.24 1708.78c21.25 0 38.48 17.22 38.48 38.47s-17.23 38.48-38.48 38.48h-109.52c-21.25 0-38.48-17.23-38.48-38.48 0-21.25 17.23-38.47 38.48-38.47z" stroke="#000" stroke-width="4" fill="#6db1ff"/><use xlink:href="#A" transform="matrix(1,0,0,1,-952.2413793103448,1713.776782452088) translate(36.36458333333332 42.52430555555556)"/><use xlink:href="#X" transform="matrix(1,0,0,1,-952.2413793103448,1713.776782452088) translate(108.587890625 42.52430555555556)"/><path d="M-809.24 1809.46c21.25 0 38.48 17.23 38.48 38.48 0 21.25-17.23 38.47-38.48 38.47h-109.52c-21.25 0-38.48-17.2-38.48-38.46 0-21.25 17.23-38.48 38.48-38.48z" stroke="#000" stroke-width="4" fill="#6db1ff"/><use xlink:href="#A" transform="matrix(1,0,0,1,-952.2413793103448,1814.4590604182013) translate(37.1941189236111 42.52430555555556)"/><use xlink:href="#Y" transform="matrix(1,0,0,1,-952.2413793103448,1814.4590604182013) translate(109.41742621527779 42.52430555555556)"/><path d="M-632 922.76v91.1" stroke="#000" stroke-width="6" fill="none"/><path d="M-629.02 922.84H-635v-3.08h5.96z" stroke="#000" stroke-width=".05"/><path d="M-632 1031.1l-4.63-14.25h9.26z" stroke="#000" stroke-width="6"/><path d="M74.34 646.96a8 8 0 0 1 11.32 0l118.68 118.7a8 8 0 0 1 0 11.3L85.66 895.66a8 8 0 0 1-11.32 0l-118.68-118.7a8 8 0 0 1 0-11.3z" stroke="#000" stroke-width="4" fill="#ffdda6"/><use xlink:href="#Z" transform="matrix(1,0,0,1,-45,646.3075542308305) translate(41.31115234375 103.375)"/><use xlink:href="#aa" transform="matrix(1,0,0,1,-45,646.3075542308305) translate(75.76427734375 103.375)"/><use xlink:href="#ab" transform="matrix(1,0,0,1,-45,646.3075542308305) translate(124.82482421875 103.375)"/><use xlink:href="#g" transform="matrix(1,0,0,1,-45,646.3075542308305) translate(11.441523437500004 129.51015625)"/><use xlink:href="#ac" transform="matrix(1,0,0,1,-45,646.3075542308305) translate(59.50890625 129.51015625)"/><use xlink:href="#k" transform="matrix(1,0,0,1,-45,646.3075542308305) translate(160.881953125 129.51015625)"/><use xlink:href="#ad" transform="matrix(1,0,0,1,-45,646.3075542308305) translate(222.0626171875 129.51015625)"/><use xlink:href="#ae" transform="matrix(1,0,0,1,-45,646.3075542308305) translate(68.41662109375001 155.6453125)"/><use xlink:href="#af" transform="matrix(1,0,0,1,-45,646.3075542308305) translate(132.69103515625 155.6453125)"/><path d="M222.13 774.28H211.7v-5.95h10.43zm28.9 0h-4.55v-5.95h4.55z" stroke="#e81313" stroke-width=".05" fill="#e81313"/><path d="M211.77 774.28h-3.54l.34-1.4.12-1.57-.13-1.56-.34-1.4h3.54z" fill="#e81313"/><path stroke="#e81313" stroke-width=".05" fill="#e81313"/><path d="M268.3 771.3L254 775.95v-9.27z" fill="#e81313"/><path d="M277.92 771.3l-26.87 8.74v-17.46zm-20.92.55l1.66-.54-1.66-.53z" stroke="#e81313" stroke-width=".05" fill="#e81313"/><use xlink:href="#ag" transform="matrix(1,0,0,1,222.1272654367275,760.4179057933305) translate(0.005000000000000782 17.4375)"/><path d="M400 731.3c22.1 0 40 17.92 40 40 0 22.1-17.9 40-40 40h-80c-22.1 0-40-17.9-40-40 0-22.08 17.9-40 40-40z" stroke="#000" stroke-width="4" fill="#04ff00"/><use xlink:href="#ah" transform="matrix(1,0,0,1,285,736.3075542308305) translate(36.8359375 45.520833333333336)"/><path d="M-240 1594.23a8 8 0 0 1 8-8h144a8 8 0 0 1 8 8v160.45a8 8 0 0 1-8 8h-144a8 8 0 0 1-8-8z" stroke="#000" stroke-width="4" fill="#fff"/><use xlink:href="#ai" transform="matrix(1,0,0,1,-228,1598.2300059867057) translate(4.49462890625 17.4375)"/><use xlink:href="#aj" transform="matrix(1,0,0,1,-228,1598.2300059867057) translate(62.62548828125 17.4375)"/><use xlink:href="#ak" transform="matrix(1,0,0,1,-228,1598.2300059867057) translate(94.71435546875 17.4375)"/><use xlink:href="#al" transform="matrix(1,0,0,1,-228,1598.2300059867057) translate(5.25048828125 43.572656249999994)"/><use xlink:href="#am" transform="matrix(1,0,0,1,-228,1598.2300059867057) translate(49.96923828125 43.572656249999994)"/><use xlink:href="#an" transform="matrix(1,0,0,1,-228,1598.2300059867057) translate(71.53759765625 43.572656249999994)"/><use xlink:href="#ao" transform="matrix(1,0,0,1,-228,1598.2300059867057) translate(14.97119140625 69.70781249999999)"/><use xlink:href="#l" transform="matrix(1,0,0,1,-228,1598.2300059867057) translate(59.73388671875 69.70781249999999)"/><use xlink:href="#ap" transform="matrix(1,0,0,1,-228,1598.2300059867057) translate(88.50048828125 69.70781249999999)"/><use xlink:href="#o" transform="matrix(1,0,0,1,-228,1598.2300059867057) translate(46.49755859375 95.84296875)"/><use xlink:href="#p" transform="matrix(1,0,0,1,-228,1598.2300059867057) translate(19.8447265625 121.97812499999999)"/><use xlink:href="#aq" transform="matrix(1,0,0,1,-228,1598.2300059867057) translate(44.69140625 148.11328125)"/><path d="M80 1952.6v39.73" stroke="#000" stroke-width="6" fill="none"/><path d="M82.97 1952.67h-5.94v-3.08h5.94z" stroke="#000" stroke-width=".05"/><path d="M80 2009.6l-4.64-14.27h9.28z" stroke="#000" stroke-width="6"/><path d="M0 1835.6a8 8 0 0 1 8-8h144a8 8 0 0 1 8 8v104a8 8 0 0 1-8 8H8a8 8 0 0 1-8-8z" stroke="#000" stroke-width="4" fill="#fff"/><g><use xlink:href="#ai" transform="matrix(1,0,0,1,12,1839.5945619189324) translate(12.25537109375 29.4375)"/><use xlink:href="#aj" transform="matrix(1,0,0,1,12,1839.5945619189324) translate(70.38623046875 29.4375)"/><use xlink:href="#j" transform="matrix(1,0,0,1,12,1839.5945619189324) translate(102.47509765625 29.4375)"/><use xlink:href="#ar" transform="matrix(1,0,0,1,12,1839.5945619189324) translate(5.94482421875 55.572656249999994)"/><use xlink:href="#am" transform="matrix(1,0,0,1,12,1839.5945619189324) translate(17.86279296875 81.70781249999999)"/><use xlink:href="#aj" transform="matrix(1,0,0,1,12,1839.5945619189324) translate(39.43115234375 81.70781249999999)"/><use xlink:href="#aq" transform="matrix(1,0,0,1,12,1839.5945619189324) translate(71.52001953125 81.70781249999999)"/></g><path d="M-210 1815.6a8 8 0 0 1 8-8h178a8 8 0 0 1 8 8v144a8 8 0 0 1-8 8h-178a8 8 0 0 1-8-8z" fill="none"/><path d="M-16 1967.6c-5.52 0-10-4.48-10-10v-60c0-5.53-4.48-10-10-10 5.52 0 10-4.48 10-10v-60c0-5.53 4.48-10 10-10" stroke="#000" stroke-width="4" fill="none"/><g><use xlink:href="#as" transform="matrix(1,0,0,1,-205,1812.5945619189324) translate(0 42.3451171875)"/><use xlink:href="#at" transform="matrix(1,0,0,1,-205,1812.5945619189324) translate(32.5458984375 42.3451171875)"/><use xlink:href="#au" transform="matrix(1,0,0,1,-205,1812.5945619189324) translate(114.4599609375 42.3451171875)"/><use xlink:href="#av" transform="matrix(1,0,0,1,-205,1812.5945619189324) translate(0 68.4802734375)"/><use xlink:href="#aw" transform="matrix(1,0,0,1,-205,1812.5945619189324) translate(77.818359375 68.4802734375)"/><use xlink:href="#ax" transform="matrix(1,0,0,1,-205,1812.5945619189324) translate(0 94.6154296875)"/><use xlink:href="#am" transform="matrix(1,0,0,1,-205,1812.5945619189324) translate(28.4677734375 94.6154296875)"/><use xlink:href="#ae" transform="matrix(1,0,0,1,-205,1812.5945619189324) translate(50.0361328125 94.6154296875)"/><use xlink:href="#ay" transform="matrix(1,0,0,1,-205,1812.5945619189324) translate(114.310546875 94.6154296875)"/><use xlink:href="#az" transform="matrix(1,0,0,1,-205,1812.5945619189324) translate(0 120.7505859375)"/><use xlink:href="#aA" transform="matrix(1,0,0,1,-205,1812.5945619189324) translate(26.33203125 120.7505859375)"/></g><path d="M74.34 1212.23a8 8 0 0 1 11.32 0l118.68 118.68a8 8 0 0 1 0 11.33L85.66 1460.9a8 8 0 0 1-11.32 0l-118.68-118.67a8 8 0 0 1 0-11.32z" stroke="#000" stroke-width="4" fill="#ffdda6"/><g><use xlink:href="#Z" transform="matrix(1,0,0,1,-45,1211.5714923055252) translate(85.7794140625 79.9375)"/><use xlink:href="#aB" transform="matrix(1,0,0,1,-45,1211.5714923055252) translate(120.2325390625 79.9375)"/><use xlink:href="#aC" transform="matrix(1,0,0,1,-45,1211.5714923055252) translate(31.884882812500006 106.07265625)"/><use xlink:href="#aD" transform="matrix(1,0,0,1,-45,1211.5714923055252) translate(120.82140625000001 106.07265625)"/><use xlink:href="#am" transform="matrix(1,0,0,1,-45,1211.5714923055252) translate(175.0411328125 106.07265625)"/><use xlink:href="#aE" transform="matrix(1,0,0,1,-45,1211.5714923055252) translate(196.6094921875 106.07265625)"/><use xlink:href="#aF" transform="matrix(1,0,0,1,-45,1211.5714923055252) translate(29.169062500000003 132.2078125)"/><use xlink:href="#ao" transform="matrix(1,0,0,1,-45,1211.5714923055252) translate(114.78332031250001 132.2078125)"/><use xlink:href="#l" transform="matrix(1,0,0,1,-45,1211.5714923055252) translate(159.546015625 132.2078125)"/><use xlink:href="#ap" transform="matrix(1,0,0,1,-45,1211.5714923055252) translate(188.3126171875 132.2078125)"/><use xlink:href="#g" transform="matrix(1,0,0,1,-45,1211.5714923055252) translate(52.81603515625 158.34296874999998)"/><use xlink:href="#p" transform="matrix(1,0,0,1,-45,1211.5714923055252) translate(100.88341796875 158.34296874999998)"/><use xlink:href="#aG" transform="matrix(1,0,0,1,-45,1211.5714923055252) translate(97.09533203125 184.47812499999998)"/></g><path d="M-55.42 1527.72h-92.46l-1.53.12-1.4.33-1.3.54-1.2.75-1.07.92-.92 1.08-.73 1.2-.54 1.3-.34 1.4-.13 1.5v20.4h-5.94v-20.62l.17-2.23.55-2.28.9-2.18 1.23-2 1.53-1.8 1.8-1.52 2-1.22 2.17-.9 2.3-.55 2.2-.18h92.7zm138.4-14.86l-.18 2.23-.55 2.28-.9 2.17-1.23 2-1.53 1.8-1.8 1.52-2 1.23-2.17.9-2.3.55-2.2.17h-92.7v-5.95h92.45l1.53-.12 1.4-.33 1.3-.54 1.2-.74 1.08-.92.9-1.07.75-1.2.55-1.32.33-1.37.13-1.53v-44.37h5.94z" stroke="#008a0e" stroke-width=".05" fill="#008a0e"/><path d="M78.44 1465.14l1.56.12 1.56-.12 1.4-.34.02 3.54h-5.95v-3.54z" fill="#008a0e"/><path stroke="#008a0e" stroke-width=".05" fill="#008a0e"/><path d="M-160 1574.52l-4.63-14.26h9.26z" fill="#008a0e"/><path d="M-160 1584.15l-8.73-26.87h17.46zm-.54-20.92l.54 1.66.54-1.67z" stroke="#008a0e" stroke-width=".05" fill="#008a0e"/><g><use xlink:href="#aH" transform="matrix(1,0,0,1,-55.416015625,1513.8573485932) translate(0.005000000000000782 17.4375)"/></g><path d="M0 1594.23a8 8 0 0 1 8-8h144a8 8 0 0 1 8 8v160.26a8 8 0 0 1-8 8H8a8 8 0 0 1-8-8z" stroke="#000" stroke-width="4" fill="#fff"/><g><use xlink:href="#ai" transform="matrix(1,0,0,1,5,1591.2300059867055) translate(8.3876953125 22.65625)"/><use xlink:href="#aj" transform="matrix(1,0,0,1,5,1591.2300059867055) translate(66.5185546875 22.65625)"/><use xlink:href="#o" transform="matrix(1,0,0,1,5,1591.2300059867055) translate(98.607421875 22.65625)"/><use xlink:href="#aI" transform="matrix(1,0,0,1,5,1591.2300059867055) translate(15.19482421875 48.791406249999994)"/><use xlink:href="#ao" transform="matrix(1,0,0,1,5,1591.2300059867055) translate(57.51416015625 48.791406249999994)"/><use xlink:href="#ap" transform="matrix(1,0,0,1,5,1591.2300059867055) translate(102.27685546875 48.791406249999994)"/><use xlink:href="#aJ" transform="matrix(1,0,0,1,5,1591.2300059867055) translate(55.171875 74.92656249999999)"/><use xlink:href="#aK" transform="matrix(1,0,0,1,5,1591.2300059867055) translate(2.16064453125 101.06171875)"/><use xlink:href="#ad" transform="matrix(1,0,0,1,5,1591.2300059867055) translate(131.33349609375 101.06171875)"/><use xlink:href="#aj" transform="matrix(1,0,0,1,5,1591.2300059867055) translate(4.18212890625 127.19687499999999)"/><use xlink:href="#aL" transform="matrix(1,0,0,1,5,1591.2300059867055) translate(36.27099609375 127.19687499999999)"/><use xlink:href="#o" transform="matrix(1,0,0,1,5,1591.2300059867055) translate(102.81298828125 127.19687499999999)"/><use xlink:href="#ac" transform="matrix(1,0,0,1,5,1591.2300059867055) translate(1.0048828125 153.33203125)"/><use xlink:href="#aq" transform="matrix(1,0,0,1,5,1591.2300059867055) translate(102.3779296875 153.33203125)"/></g><path d="M80 1767.5v31.12" stroke="#000" stroke-width="6" fill="none"/><path d="M82.97 1767.56h-5.94v-3.07h5.94z" stroke="#000" stroke-width=".05"/><path d="M80 1815.9l-4.64-14.28h9.28z" stroke="#000" stroke-width="6"/><path d="M80 2180.98v38.33a12 12 0 0 0 12 12h256a12 12 0 0 0 12-12v-870.73a12 12 0 0 0-12-12H235.67" stroke="#000" stroke-width="6" fill="none"/><path d="M82.97 2181.06h-5.94v-3.08h5.94z" stroke="#000" stroke-width=".05"/><path d="M218.4 1336.57l14.27-4.63v9.27z" stroke="#000" stroke-width="6"/><path d="M0 2029.3a8 8 0 0 1 8-8h144a8 8 0 0 1 8 8V2168a8 8 0 0 1-8 8H8a8 8 0 0 1-8-8z" stroke="#000" stroke-width="4" fill="#fff"/><g><use xlink:href="#aM" transform="matrix(1,0,0,1,12,2033.3075542308306) translate(2.732421875 21.53125)"/><use xlink:href="#aN" transform="matrix(1,0,0,1,12,2033.3075542308306) translate(74.4072265625 21.53125)"/><use xlink:href="#j" transform="matrix(1,0,0,1,12,2033.3075542308306) translate(111.998046875 21.53125)"/><use xlink:href="#am" transform="matrix(1,0,0,1,12,2033.3075542308306) translate(47.42919921875 43.310546875)"/><use xlink:href="#aO" transform="matrix(1,0,0,1,12,2033.3075542308306) translate(68.99755859375 43.310546875)"/><use xlink:href="#ar" transform="matrix(1,0,0,1,12,2033.3075542308306) translate(5.94482421875 65.08984375)"/><use xlink:href="#o" transform="matrix(1,0,0,1,12,2033.3075542308306) translate(46.49755859375 86.869140625)"/><use xlink:href="#p" transform="matrix(1,0,0,1,12,2033.3075542308306) translate(19.8447265625 108.6484375)"/><use xlink:href="#aP" transform="matrix(1,0,0,1,12,2033.3075542308306) translate(29.22265625 130.427734375)"/><use xlink:href="#aQ" transform="matrix(1,0,0,1,12,2033.3075542308306) translate(80.90234375 130.427734375)"/></g><path d="M176 2009.3a8 8 0 0 1 8-8h164a8 8 0 0 1 8 8v184a8 8 0 0 1-8 8H184a8 8 0 0 1-8-8z" fill="none"/><path d="M176 2201.3c5.52 0 10-4.47 10-10v-80c0-5.52 4.48-10 10-10-5.52 0-10-4.47-10-10v-80c0-5.5-4.48-10-10-10" stroke="#000" stroke-width="4" fill="none"/><g><use xlink:href="#aR" transform="matrix(1,0,0,1,211,2006.3075542308306) translate(0 62.3451171875)"/><use xlink:href="#aS" transform="matrix(1,0,0,1,211,2006.3075542308306) translate(39.568359375 62.3451171875)"/><use xlink:href="#aT" transform="matrix(1,0,0,1,211,2006.3075542308306) translate(110.3818359375 62.3451171875)"/><use xlink:href="#aj" transform="matrix(1,0,0,1,211,2006.3075542308306) translate(0 88.4802734375)"/><use xlink:href="#aU" transform="matrix(1,0,0,1,211,2006.3075542308306) translate(32.0888671875 88.4802734375)"/><use xlink:href="#o" transform="matrix(1,0,0,1,211,2006.3075542308306) translate(59.90625 88.4802734375)"/><use xlink:href="#p" transform="matrix(1,0,0,1,211,2006.3075542308306) translate(0 114.6154296875)"/><use xlink:href="#aq" transform="matrix(1,0,0,1,211,2006.3075542308306) translate(0 140.7505859375)"/></g><g transform="matrix(1,0,0,1,211,2006.3075542308306)"><a xlink:href="http://B2.bmp" target="_blank"><path class="lucid-link lucid-hotspot lucid-overlay-hotspot" fill-opacity="0" d="M39.57 44.9h65.75v21.8H39.57z"/></a></g><path d="M0 986.78a8 8 0 0 1 8-8h144a8 8 0 0 1 8 8v134.32a8 8 0 0 1-8 8H8a8 8 0 0 1-8-8z" stroke="#000" stroke-width="4" fill="#fff"/><g><use xlink:href="#ai" transform="matrix(1,0,0,1,12,990.7795623306777) translate(4.49462890625 21.40625)"/><use xlink:href="#aj" transform="matrix(1,0,0,1,12,990.7795623306777) translate(62.62548828125 21.40625)"/><use xlink:href="#ak" transform="matrix(1,0,0,1,12,990.7795623306777) translate(94.71435546875 21.40625)"/><use xlink:href="#aC" transform="matrix(1,0,0,1,12,990.7795623306777) translate(2.029296875 47.541406249999994)"/><use xlink:href="#o" transform="matrix(1,0,0,1,12,990.7795623306777) translate(90.9658203125 47.541406249999994)"/><use xlink:href="#p" transform="matrix(1,0,0,1,12,990.7795623306777) translate(19.8447265625 73.67656249999999)"/><use xlink:href="#aP" transform="matrix(1,0,0,1,12,990.7795623306777) translate(1.77001953125 99.81171875)"/><use xlink:href="#am" transform="matrix(1,0,0,1,12,990.7795623306777) translate(53.44970703125 99.81171875)"/><use xlink:href="#an" transform="matrix(1,0,0,1,12,990.7795623306777) translate(75.01806640625 99.81171875)"/><use xlink:href="#aA" transform="matrix(1,0,0,1,12,990.7795623306777) translate(48.14990234375 125.94687499999999)"/></g><path d="M82.97 949.8h-5.94v-12.4h5.94zm0-34.18h-5.94V903h5.94z" stroke="#008a0e" stroke-width=".05" fill="#008a0e"/><path d="M78.44 899.88L80 900l1.56-.12 1.4-.34.02 3.54h-5.95v-3.54z" fill="#008a0e"/><path stroke="#008a0e" stroke-width=".05" fill="#008a0e"/><path d="M80 967.07l-4.64-14.26h9.28z" fill="#008a0e"/><path d="M80 976.7l-8.73-26.87h17.46zm-.54-20.92l.54 1.66.54-1.66z" stroke="#008a0e" stroke-width=".05" fill="#008a0e"/><g><use xlink:href="#aH" transform="matrix(1,0,0,1,64.583984375,915.6177527293398) translate(0.005000000000000782 17.4375)"/></g><path d="M80 1133.1v52.04" stroke="#3a414a" stroke-width="4" fill="none"/><path d="M81.97 1133.15h-3.94v-2.05h3.94z" stroke="#3a414a" stroke-width=".05" fill="#3a414a"/><path d="M80 1201.4l-4.64-14.26h9.28z" stroke="#3a414a" stroke-width="4" fill="#3a414a"/><path d="M70.34 569.15l2.3.55 2.16.9 2 1.23 1.8 1.53 1.52 1.78 1.23 2 .9 2.18.55 2.3.17 2.22v31.8h-5.94v-31.57l-.13-1.53-.33-1.37-.54-1.3-.74-1.22-.92-1.07-1.08-.92-1.2-.74-1.3-.54-1.4-.33-1.52-.12h-297.76l-1.53.12-1.4.33-1.3.54-1.2.74-1.07.92-.92 1.07-.73 1.2-.54 1.32-.34 1.37-.13 1.53v899.6l-.17 2.22-.55 2.28-.9 2.17-1.23 2-1.53 1.8-1.8 1.52-2 1.23-2.17.9-2.3.55-2.2.17H-279v-5.95h24.88l1.53-.12 1.4-.33 1.3-.54 1.2-.74 1.07-.92.92-1.07.73-1.2.54-1.32.34-1.37.13-1.53v-899.6l.17-2.22.55-2.28.9-2.17 1.23-2 1.53-1.8 1.8-1.52 2-1.23 2.17-.9 2.3-.55 2.2-.17H68.13z" stroke="#000" stroke-width=".05"/><path d="M80 632.9l-4.64-14.26h9.28z"/><path d="M80 642.53l-8.73-26.86h17.46zm-.54-20.9l.54 1.65.54-1.66z" stroke="#000" stroke-width=".05"/><path d="M-278.92 1498.52H-282v-5.95h3.08z"/><path stroke="#000" stroke-width=".05"/><path d="M-157.03 1324.45l.13 1.53.33 1.38.54 1.3.74 1.2.93 1.1 1.07.9 1.2.75 1.3.55 1.4.33 1.52.12h96.2v5.95h-96.44l-2.22-.18-2.3-.55-2.16-.9-2-1.23-1.8-1.53-1.52-1.8-1.23-2-.9-2.17-.55-2.28-.17-2.23v-259.87h5.94zm81.36-550.17h-72.2l-1.54.12-1.4.33-1.3.54-1.2.74-1.07.93-.92 1.08-.73 1.2-.54 1.32-.34 1.38-.13 1.52v259.63h-5.94V783.2l.17-2.24.55-2.28.9-2.17 1.23-2 1.53-1.8 1.8-1.52 2-1.22 2.17-.9 2.3-.55 2.2-.17h72.46z" stroke="#e81313" stroke-width=".05" fill="#e81313"/><path d="M-48.57 1335l-.12 1.57.13 1.57.34 1.4h-3.54v-5.94h3.54z" fill="#e81313"/><path stroke="#e81313" stroke-width=".05" fill="#e81313"/><path d="M-58.4 771.3l-14.27 4.64v-9.27z" fill="#e81313"/><path d="M-48.77 771.3l-26.87 8.74v-17.46zm-20.92.55l1.67-.54-1.66-.53z" stroke="#e81313" stroke-width=".05" fill="#e81313"/><g><use xlink:href="#ag" transform="matrix(1,0,0,1,-172.17724609375,1043.0498838824115) translate(0.005000000000000782 17.4375)"/></g><path d="M-75 1674.46h34.95a.05.05 0 0 0 .05-.05.05.05 0 0 1 .05-.04h10.98" stroke="#000" stroke-width="6" fill="none"/><path d="M-74.92 1677.43H-78v-5.95h3.08z" stroke="#000" stroke-width=".05"/><path d="M-11.7 1674.36l-14.27 4.63v-9.28z" stroke="#000" stroke-width="6"/><defs><path d="M135 0v-1490h997v253H440v360h640v249H440v375h694V0H135" id="aV"/><path d="M42 0l360-574-338-544h324c72 124 151 261 209 394 58-134 140-271 215-394h318L785-570 1146 0H824c-79-136-169-280-234-425C528-278 439-134 360 0H42" id="aW"/><path d="M683-1118v229H474v562c0 71 29 104 102 104 23 0 73-7 95-13l43 225C647 9 580 16 520 16 296 16 174-96 174-301v-588H20v-229h154v-266h300v266h209" id="aX"/><path d="M128 0v-1118h290v195h12c54-169 184-238 367-200v268c-27-8-86-15-130-15-138 0-239 95-239 234V0H128" id="aY"/><path d="M440 22C227 22 68-92 68-313c0-250 202-322 422-343 195-21 271-24 271-105 0-95-63-149-175-149-116 0-187 57-211 129l-275-46c57-194 237-305 487-305 240 0 474 108 474 379V0H777v-155h-10C713-51 605 22 440 22zm85-211c140 0 238-93 238-211v-121c-37 26-156 42-222 51-111 16-185 59-185 149 0 87 70 132 169 132" id="aZ"/><path d="M628 22C291 22 81-210 81-554c0-346 210-578 547-578 265 0 455 142 497 372l-279 52c-25-116-99-188-215-188-160 0-244 139-244 341 0 200 84 341 244 341 116 0 193-74 217-195l279 51C1085-123 896 22 628 22" id="ba"/><path d="M128 0v-1118h300V0H128zm150-1264c-91 0-165-68-165-154 0-85 74-154 165-154 90 0 165 69 165 154 0 86-75 154-165 154" id="bb"/><path d="M628 22C291 22 81-210 81-554c0-346 210-578 547-578 336 0 547 232 547 578 0 344-211 576-547 576zm0-236c160 0 242-146 242-341 0-197-82-341-242-341S387-753 387-555c0 195 81 341 241 341" id="bc"/><path d="M428-647V0H128v-1118h283l4 231c63-156 176-245 348-245 232 0 384 159 384 421V0H847v-659c0-139-76-222-202-222-128 0-217 86-217 234" id="bd"/><g id="a"><use transform="matrix(0.032552083333333336,0,0,0.032552083333333336,0,0)" xlink:href="#aV"/><use transform="matrix(0.032552083333333336,0,0,0.032552083333333336,40.49479166666667,0)" xlink:href="#aW"/><use transform="matrix(0.032552083333333336,0,0,0.032552083333333336,80.11067708333334,0)" xlink:href="#aX"/><use transform="matrix(0.032552083333333336,0,0,0.032552083333333336,104.52473958333334,0)" xlink:href="#aY"/><use transform="matrix(0.032552083333333336,0,0,0.032552083333333336,130.76171875000003,0)" xlink:href="#aZ"/><use transform="matrix(0.032552083333333336,0,0,0.032552083333333336,169.46614583333337,0)" xlink:href="#ba"/><use transform="matrix(0.032552083333333336,0,0,0.032552083333333336,208.69140625000006,0)" xlink:href="#aX"/><use transform="matrix(0.032552083333333336,0,0,0.032552083333333336,233.10546875000006,0)" xlink:href="#bb"/><use transform="matrix(0.032552083333333336,0,0,0.032552083333333336,251.17187500000006,0)" xlink:href="#bc"/><use transform="matrix(0.032552083333333336,0,0,0.032552083333333336,292.05729166666674,0)" xlink:href="#bd"/></g><path d="M657 26c-323 0-524-166-541-416h195c15 169 171 246 346 246 202 0 356-106 356-265 5-203-294-238-475-293-239-73-380-191-380-389 0-252 224-419 512-419 294 0 499 171 508 396H992c-17-145-151-228-328-228-193 0-321 102-321 242 0 156 175 211 284 241l149 41c160 44 422 134 422 412 0 244-197 432-541 432" id="be"/><path d="M598-1118v154H368v674c0 100 37 144 132 144 23 0 62-6 92-12L629-6c-37 13-88 20-134 20-193 0-307-107-307-290v-688H20v-154h168v-266h180v266h230" id="bf"/><path d="M628 24c-324 0-524-230-524-574 0-343 198-582 503-582 237 0 487 146 487 559v75H286c9 234 145 362 343 362 132 0 231-58 273-172l174 48C1024-91 857 24 628 24zM287-650h624c-17-190-120-322-304-322-192 0-309 151-320 322" id="bg"/><path d="M611 442c-248 0-391-105-460-228l146-94c47 65 117 165 314 165 178 0 307-82 307-266v-224h-17C863-141 792-18 576-18c-268 0-472-195-472-546 0-346 197-568 476-568 216 0 288 133 326 193h17v-179h175V29c0 289-215 413-487 413zm-5-620c203 0 314-146 314-390 0-237-108-403-314-403-213 0-319 180-319 403 0 230 109 390 319 390" id="bh"/><g id="b"><use transform="matrix(0.010091145833333334,0,0,0.010091145833333334,0,0)" xlink:href="#be"/><use transform="matrix(0.010091145833333334,0,0,0.010091145833333334,13.259765625,0)" xlink:href="#bf"/><use transform="matrix(0.010091145833333334,0,0,0.010091145833333334,19.819010416666668,0)" xlink:href="#bg"/><use transform="matrix(0.010091145833333334,0,0,0.010091145833333334,31.867838541666668,0)" xlink:href="#bh"/></g><path d="M370-1490V0H180v-1490h190" id="bi"/><path d="M158 0v-1118h175l1 205c55-151 181-225 313-225 147 0 245 90 285 228 53-141 190-228 352-228 194 0 352 125 352 384V0h-181v-749c0-161-105-225-225-225-151 0-243 103-243 244V0H807v-767c0-124-93-207-219-207-131 0-250 92-250 270V0H158" id="bj"/><path d="M471 26C259 26 90-98 90-318c0-256 228-303 435-329 202-27 287-16 287-108 0-139-79-219-234-219-161 0-248 86-283 164l-173-57c86-203 278-265 451-265 150 0 419 46 419 395V0H815v-152h-12C765-73 660 26 471 26zm31-159c199 0 310-134 310-271v-155c-30 35-226 55-295 64-131 17-246 59-246 186 0 116 97 176 231 176" id="bk"/><g id="c"><use transform="matrix(0.010091145833333334,0,0,0.010091145833333334,0,0)" xlink:href="#bi"/><use transform="matrix(0.010091145833333334,0,0,0.010091145833333334,5.550130208333334,0)" xlink:href="#bj"/><use transform="matrix(0.010091145833333334,0,0,0.010091145833333334,23.653645833333336,0)" xlink:href="#bk"/><use transform="matrix(0.010091145833333334,0,0,0.010091145833333334,35.25846354166667,0)" xlink:href="#bh"/><use transform="matrix(0.010091145833333334,0,0,0.010091145833333334,47.93294270833334,0)" xlink:href="#bg"/></g><path d="M158 418v-1536h174v179h20c37-59 106-193 324-193 279 0 474 222 474 576 0 356-194 580-473 580-213 0-288-135-325-197h-14v591H158zm492-555c209 0 317-186 317-421 0-232-105-413-317-413-206 0-314 166-314 413 0 249 111 421 314 421" id="bl"/><path d="M338-1490V0H158v-1490h180" id="bm"/><path d="M158 0v-1118h180V0H158zm91-1301c-68 0-125-53-125-119s57-119 125-119c69 0 126 53 126 119s-57 119-126 119" id="bn"/><g id="d"><use transform="matrix(0.0087890625,0,0,0.0087890625,0,0)" xlink:href="#be"/><use transform="matrix(0.0087890625,0,0,0.0087890625,11.548828125,0)" xlink:href="#bl"/><use transform="matrix(0.0087890625,0,0,0.0087890625,22.5703125,0)" xlink:href="#bm"/><use transform="matrix(0.0087890625,0,0,0.0087890625,26.9296875,0)" xlink:href="#bn"/><use transform="matrix(0.0087890625,0,0,0.0087890625,31.2890625,0)" xlink:href="#bf"/></g><g id="e"><use transform="matrix(0.0087890625,0,0,0.0087890625,0,0)" xlink:href="#bi"/><use transform="matrix(0.0087890625,0,0,0.0087890625,4.833984375,0)" xlink:href="#bj"/><use transform="matrix(0.0087890625,0,0,0.0087890625,20.6015625,0)" xlink:href="#bk"/><use transform="matrix(0.0087890625,0,0,0.0087890625,30.708984375,0)" xlink:href="#bh"/><use transform="matrix(0.0087890625,0,0,0.0087890625,41.748046875,0)" xlink:href="#bg"/></g><path d="M677 24c-213 0-288-135-325-197h-20V0H158v-1490h180v551h14c37-59 106-193 324-193 279 0 474 222 474 576 0 356-194 580-473 580zm-27-161c209 0 317-186 317-421 0-232-105-413-317-413-206 0-314 166-314 413 0 249 111 421 314 421" id="bo"/><path d="M140 405l46-156c120 36 205 19 263-150l32-93L54-1118h197c107 313 237 620 324 950 87-331 219-637 326-950h196L606 167c-68 178-176 259-334 259-64 0-113-12-132-21" id="bp"/><g id="f"><use transform="matrix(0.0087890625,0,0,0.0087890625,0,0)" xlink:href="#bo"/><use transform="matrix(0.0087890625,0,0,0.0087890625,10.669921875,0)" xlink:href="#bp"/></g><path d="M613 24c-304 0-509-231-509-576 0-350 205-580 509-580 216 0 392 114 453 309l-173 49c-33-115-133-197-280-197-223 0-326 196-326 419 0 220 103 415 326 415 150 0 252-85 285-206l172 49C1010-95 832 24 613 24" id="bq"/><path d="M613 24c-304 0-509-231-509-576 0-350 205-580 509-580 305 0 511 230 511 580 0 345-206 576-511 576zm0-161c226 0 329-195 329-415 0-222-103-419-329-419-223 0-326 196-326 419 0 220 103 415 326 415" id="br"/><path d="M158 0v-1118h174v172h12c41-113 157-188 290-188 26 0 70 2 91 3v181c-11-2-60-10-108-10-161 0-279 109-279 260V0H158" id="bs"/><g id="g"><use transform="matrix(0.0087890625,0,0,0.0087890625,0,0)" xlink:href="#bq"/><use transform="matrix(0.0087890625,0,0,0.0087890625,10.283203125,0)" xlink:href="#br"/><use transform="matrix(0.0087890625,0,0,0.0087890625,21.076171875,0)" xlink:href="#bm"/><use transform="matrix(0.0087890625,0,0,0.0087890625,25.435546875,0)" xlink:href="#br"/><use transform="matrix(0.0087890625,0,0,0.0087890625,36.228515625,0)" xlink:href="#bs"/></g><path d="M338-670V0H158v-1118h173l1 207c72-158 192-221 342-221 226 0 378 139 378 422V0H872v-695c0-172-96-275-252-275-161 0-282 109-282 300" id="bt"/><g id="h"><use transform="matrix(0.0087890625,0,0,0.0087890625,0,0)" xlink:href="#bn"/><use transform="matrix(0.0087890625,0,0,0.0087890625,4.359375,0)" xlink:href="#bt"/><use transform="matrix(0.0087890625,0,0,0.0087890625,14.994140625,0)" xlink:href="#bf"/><use transform="matrix(0.0087890625,0,0,0.0087890625,20.70703125,0)" xlink:href="#br"/></g><path d="M633 20c-303 0-511-173-511-416 0-188 124-348 291-378v-8c-145-37-237-174-237-332 0-227 192-396 457-396 261 0 456 169 456 396 0 158-94 295-235 332v8c162 30 291 190 291 378 0 243-212 416-512 416zm0-165c197 0 322-103 322-261 0-165-138-283-322-283-188 0-324 118-324 283 0 158 123 261 324 261zm0-703c157 0 272-101 272-252 0-149-110-246-272-246-165 0-273 97-273 246 0 151 112 252 273 252" id="bu"/><use transform="matrix(0.0087890625,0,0,0.0087890625,0,0)" xlink:href="#bu" id="i"/><g id="j"><use transform="matrix(0.0087890625,0,0,0.0087890625,0,0)" xlink:href="#bo"/><use transform="matrix(0.0087890625,0,0,0.0087890625,11.021484375,0)" xlink:href="#bn"/><use transform="matrix(0.0087890625,0,0,0.0087890625,15.380859375,0)" xlink:href="#bf"/></g><path d="M538 24C308 24 148-78 108-271l171-41c32 123 123 178 257 178 156 0 256-77 256-169 0-77-54-128-164-154l-186-44c-203-48-300-148-300-305 0-192 176-326 414-326 230 0 351 112 402 269l-163 42c-31-80-94-158-238-158-133 0-233 69-233 162 0 83 57 129 188 160l169 40c203 48 298 149 298 302 0 196-179 339-441 339" id="bv"/><g id="k"><use transform="matrix(0.0087890625,0,0,0.0087890625,0,0)" xlink:href="#bl"/><use transform="matrix(0.0087890625,0,0,0.0087890625,11.021484375,0)" xlink:href="#bm"/><use transform="matrix(0.0087890625,0,0,0.0087890625,15.380859375,0)" xlink:href="#bk"/><use transform="matrix(0.0087890625,0,0,0.0087890625,25.48828125,0)" xlink:href="#bt"/><use transform="matrix(0.0087890625,0,0,0.0087890625,36.123046875,0)" xlink:href="#bg"/><use transform="matrix(0.0087890625,0,0,0.0087890625,46.6171875,0)" xlink:href="#bv"/></g><path d="M678-1118v154H420V0H240v-964H20v-154h220v-149c0-194 155-293 318-293 85 0 141 18 168 30l-50 154c-19-6-47-17-97-17-111 0-159 58-159 166v109h258" id="bw"/><g id="l"><use transform="matrix(0.0087890625,0,0,0.0087890625,0,0)" xlink:href="#bw"/><use transform="matrix(0.0087890625,0,0,0.0087890625,6.134765625,0)" xlink:href="#br"/><use transform="matrix(0.0087890625,0,0,0.0087890625,16.927734375,0)" xlink:href="#bs"/></g><path d="M338-670V0H158v-1490h180v566c73-149 190-208 336-208 226 0 379 139 379 422V0H872v-695c0-172-96-275-252-275-161 0-282 109-282 300" id="bx"/><g id="m"><use transform="matrix(0.0087890625,0,0,0.0087890625,0,0)" xlink:href="#bg"/><use transform="matrix(0.0087890625,0,0,0.0087890625,10.669921875,0)" xlink:href="#bk"/><use transform="matrix(0.0087890625,0,0,0.0087890625,20.77734375,0)" xlink:href="#bq"/><use transform="matrix(0.0087890625,0,0,0.0087890625,31.060546875,0)" xlink:href="#bx"/></g><path d="M218-607c0-325 108-727 258-974h175c-155 315-250 682-250 974 0 265 78 531 250 886H476C306-10 218-315 218-607" id="by"/><g id="n"><use transform="matrix(0.0087890625,0,0,0.0087890625,0,0)" xlink:href="#by"/><use transform="matrix(0.0087890625,0,0,0.0087890625,6.5654296875,0)" xlink:href="#bn"/><use transform="matrix(0.0087890625,0,0,0.0087890625,10.9248046875,0)" xlink:href="#bt"/><use transform="matrix(0.0087890625,0,0,0.0087890625,21.5595703125,0)" xlink:href="#bf"/><use transform="matrix(0.0087890625,0,0,0.0087890625,27.2724609375,0)" xlink:href="#br"/></g><g id="o"><use transform="matrix(0.0087890625,0,0,0.0087890625,0,0)" xlink:href="#bq"/><use transform="matrix(0.0087890625,0,0,0.0087890625,10.283203125,0)" xlink:href="#br"/><use transform="matrix(0.0087890625,0,0,0.0087890625,21.076171875,0)" xlink:href="#bm"/><use transform="matrix(0.0087890625,0,0,0.0087890625,25.435546875,0)" xlink:href="#br"/><use transform="matrix(0.0087890625,0,0,0.0087890625,36.228515625,0)" xlink:href="#bs"/></g><g id="p"><use transform="matrix(0.0087890625,0,0,0.0087890625,0,0)" xlink:href="#bq"/><use transform="matrix(0.0087890625,0,0,0.0087890625,10.283203125,0)" xlink:href="#br"/><use transform="matrix(0.0087890625,0,0,0.0087890625,21.076171875,0)" xlink:href="#bj"/><use transform="matrix(0.0087890625,0,0,0.0087890625,36.84375,0)" xlink:href="#bl"/><use transform="matrix(0.0087890625,0,0,0.0087890625,47.865234375,0)" xlink:href="#br"/><use transform="matrix(0.0087890625,0,0,0.0087890625,58.658203125,0)" xlink:href="#bt"/><use transform="matrix(0.0087890625,0,0,0.0087890625,69.29296875,0)" xlink:href="#bg"/><use transform="matrix(0.0087890625,0,0,0.0087890625,79.787109375,0)" xlink:href="#bt"/><use transform="matrix(0.0087890625,0,0,0.0087890625,90.421875,0)" xlink:href="#bf"/></g><path d="M96 279C273-86 346-350 346-607c0-292-95-659-250-974h175c150 246 258 650 258 974 0 297-91 602-258 886H96" id="bz"/><g id="q"><use transform="matrix(0.0087890625,0,0,0.0087890625,0,0)" xlink:href="#bl"/><use transform="matrix(0.0087890625,0,0,0.0087890625,11.021484375,0)" xlink:href="#bm"/><use transform="matrix(0.0087890625,0,0,0.0087890625,15.380859375,0)" xlink:href="#bk"/><use transform="matrix(0.0087890625,0,0,0.0087890625,25.48828125,0)" xlink:href="#bt"/><use transform="matrix(0.0087890625,0,0,0.0087890625,36.123046875,0)" xlink:href="#bg"/><use transform="matrix(0.0087890625,0,0,0.0087890625,46.6171875,0)" xlink:href="#bv"/><use transform="matrix(0.0087890625,0,0,0.0087890625,56.1181640625,0)" xlink:href="#bz"/></g><path fill="#fff" d="M135 0v-1490h591c327 0 492 160 492 383 0 177-115 286-268 320v15c168 8 326 140 326 361 0 236-176 411-512 411H135zm305-251h264c179 0 258-76 258-189 0-125-97-215-250-215H440v404zm0-613h241c131 0 228-74 228-194 0-109-79-183-222-183H440v377" id="bA"/><path fill="#fff" d="M128 0v-1118h300V0H128zm150-1264c-91 0-165-68-165-154 0-85 74-154 165-154 90 0 165 69 165 154 0 86-75 154-165 154" id="bB"/><path fill="#fff" d="M683-1118v229H474v562c0 71 29 104 102 104 23 0 73-7 95-13l43 225C647 9 580 16 520 16 296 16 174-96 174-301v-588H20v-229h154v-266h300v266h209" id="bC"/><g id="r"><use transform="matrix(0.015190972222222224,0,0,0.015190972222222224,0,0)" xlink:href="#bA"/><use transform="matrix(0.015190972222222224,0,0,0.015190972222222224,20.583767361111114,0)" xlink:href="#bB"/><use transform="matrix(0.015190972222222224,0,0,0.015190972222222224,29.01475694444445,0)" xlink:href="#bC"/></g><path fill="#fff" d="M135 0v-1490h581c339 0 533 210 533 503 0 295-197 500-540 500H440V0H135zm305-733h220c186 0 274-104 274-254s-88-251-275-251H440v505" id="bD"/><path fill="#fff" d="M428-1490V0H128v-1490h300" id="bE"/><path fill="#fff" d="M440 22C227 22 68-92 68-313c0-250 202-322 422-343 195-21 271-24 271-105 0-95-63-149-175-149-116 0-187 57-211 129l-275-46c57-194 237-305 487-305 240 0 474 108 474 379V0H777v-155h-10C713-51 605 22 440 22zm85-211c140 0 238-93 238-211v-121c-37 26-156 42-222 51-111 16-185 59-185 149 0 87 70 132 169 132" id="bF"/><path fill="#fff" d="M428-647V0H128v-1118h283l4 231c63-156 176-245 348-245 232 0 384 159 384 421V0H847v-659c0-139-76-222-202-222-128 0-217 86-217 234" id="bG"/><path fill="#fff" d="M633 22C291 22 81-200 81-553c0-345 210-579 537-579 292 0 525 185 525 567v84H378c7 183 109 277 260 277 105 0 184-46 216-132l272 51C1071-99 893 22 633 22zM380-669h474c-15-146-94-237-233-237-143 0-229 99-241 237" id="bH"/><path fill="#fff" d="M572 22C302 22 117-98 78-306l279-48c29 105 101 156 224 156 114 0 185-48 185-115 0-118-228-130-337-155-215-49-322-150-322-317 0-215 187-347 470-347 265 0 424 116 466 298l-266 47c-24-76-87-130-196-130-98 0-174 46-174 113 0 56 38 95 144 117l201 40c216 44 320 143 320 302 0 220-207 367-500 367" id="bI"/><g id="s"><use transform="matrix(0.015190972222222224,0,0,0.015190972222222224,0,0)" xlink:href="#bD"/><use transform="matrix(0.015190972222222224,0,0,0.015190972222222224,20.15842013888889,0)" xlink:href="#bE"/><use transform="matrix(0.015190972222222224,0,0,0.015190972222222224,28.58940972222222,0)" xlink:href="#bF"/><use transform="matrix(0.015190972222222224,0,0,0.015190972222222224,46.65147569444444,0)" xlink:href="#bG"/><use transform="matrix(0.015190972222222224,0,0,0.015190972222222224,66.01996527777777,0)" xlink:href="#bH"/><use transform="matrix(0.015190972222222224,0,0,0.015190972222222224,84.55295138888889,0)" xlink:href="#bI"/></g><path fill="#fff" d="M169-607c0-330 107-732 258-974h279c-145 311-231 674-231 974 0 262 67 512 231 886H427C258-1 169-307 169-607" id="bJ"/><path fill="#fff" d="M795 20C377 20 94-272 94-743c0-483 302-767 694-767 335 0 593 206 635 500h-310c-42-142-154-229-320-229-230 0-389 177-389 493s154 495 393 495c212 0 340-120 345-311H818v-232h620v186c0 391-269 628-643 628" id="bK"/><path fill="#fff" d="M135 0v-1490h581c339 0 533 192 533 485 0 204-94 351-264 424L1302 0H964L680-532H440V0H135zm305-779h220c186 0 274-77 274-226 0-150-88-233-275-233H440v459" id="bL"/><path fill="#fff" d="M67 279c166-379 230-627 230-886 0-300-86-663-230-974h278c151 241 258 644 258 974 0 302-90 608-258 886H67" id="bM"/><g id="t"><use transform="matrix(0.015190972222222224,0,0,0.015190972222222224,0,0)" xlink:href="#bJ"/><use transform="matrix(0.015190972222222224,0,0,0.015190972222222224,12.289496527777779,0)" xlink:href="#bA"/><use transform="matrix(0.015190972222222224,0,0,0.015190972222222224,32.87326388888889,0)" xlink:href="#bK"/><use transform="matrix(0.015190972222222224,0,0,0.015190972222222224,56.22178819444445,0)" xlink:href="#bL"/><use transform="matrix(0.015190972222222224,0,0,0.015190972222222224,76.65364583333334,0)" xlink:href="#bM"/></g><path d="M135 0v-1490h591c327 0 492 160 492 383 0 177-115 286-268 320v15c168 8 326 140 326 361 0 236-176 411-512 411H135zm305-251h264c179 0 258-76 258-189 0-125-97-215-250-215H440v404zm0-613h241c131 0 228-74 228-194 0-109-79-183-222-183H440v377" id="bN"/><path d="M428-1490V0H128v-1490h300" id="bO"/><path d="M513 14c-232 0-385-159-385-421v-711h300v659c0 139 76 222 202 222 127 0 217-86 217-234v-647h301V0H864l-4-232C797-74 683 14 513 14" id="bP"/><path d="M633 22C291 22 81-200 81-553c0-345 210-579 537-579 292 0 525 185 525 567v84H378c7 183 109 277 260 277 105 0 184-46 216-132l272 51C1071-99 893 22 633 22zM380-669h474c-15-146-94-237-233-237-143 0-229 99-241 237" id="bQ"/><g id="u"><use transform="matrix(0.0087890625,0,0,0.0087890625,0,0)" xlink:href="#bN"/><use transform="matrix(0.0087890625,0,0,0.0087890625,11.9091796875,0)" xlink:href="#bO"/><use transform="matrix(0.0087890625,0,0,0.0087890625,16.787109375,0)" xlink:href="#bP"/><use transform="matrix(0.0087890625,0,0,0.0087890625,27.9931640625,0)" xlink:href="#bQ"/></g><path d="M169-607c0-330 107-732 258-974h279c-145 311-231 674-231 974 0 262 67 512 231 886H427C258-1 169-307 169-607" id="bR"/><path d="M67 279c166-379 230-627 230-886 0-300-86-663-230-974h278c151 241 258 644 258 974 0 302-90 608-258 886H67" id="bS"/><g id="v"><use transform="matrix(0.0087890625,0,0,0.0087890625,0,0)" xlink:href="#bR"/><use transform="matrix(0.0087890625,0,0,0.0087890625,7.1103515625,0)" xlink:href="#bN"/><use transform="matrix(0.0087890625,0,0,0.0087890625,19.01953125,0)" xlink:href="#bS"/></g><path d="M795 20C377 20 94-272 94-743c0-483 302-767 694-767 335 0 593 206 635 500h-310c-42-142-154-229-320-229-230 0-389 177-389 493s154 495 393 495c212 0 340-120 345-311H818v-232h620v186c0 391-269 628-643 628" id="bT"/><g id="w"><use transform="matrix(0.0087890625,0,0,0.0087890625,0,0)" xlink:href="#bT"/><use transform="matrix(0.0087890625,0,0,0.0087890625,13.5087890625,0)" xlink:href="#aY"/><use transform="matrix(0.0087890625,0,0,0.0087890625,20.3994140625,0)" xlink:href="#bQ"/><use transform="matrix(0.0087890625,0,0,0.0087890625,31.1220703125,0)" xlink:href="#bQ"/><use transform="matrix(0.0087890625,0,0,0.0087890625,41.8447265625,0)" xlink:href="#bd"/></g><g id="x"><use transform="matrix(0.0087890625,0,0,0.0087890625,0,0)" xlink:href="#bR"/><use transform="matrix(0.0087890625,0,0,0.0087890625,6.78515625,0)" xlink:href="#bT"/><use transform="matrix(0.0087890625,0,0,0.0087890625,20.2939453125,0)" xlink:href="#bS"/></g><path d="M135 0v-1490h581c339 0 533 192 533 485 0 204-94 351-264 424L1302 0H964L680-532H440V0H135zm305-779h220c186 0 274-77 274-226 0-150-88-233-275-233H440v459" id="bU"/><path d="M537 19C279 19 81-185 81-557c0-382 206-575 454-575 190 0 278 113 318 202h10v-560h300V0H868v-179h-15C812-89 719 19 537 19zm92-241c153 0 240-134 240-336 0-203-86-334-240-334-158 0-240 138-240 334 0 197 84 336 240 336" id="bV"/><g id="y"><use transform="matrix(0.0087890625,0,0,0.0087890625,0,0)" xlink:href="#bU"/><use transform="matrix(0.0087890625,0,0,0.0087890625,11.6015625,0)" xlink:href="#bQ"/><use transform="matrix(0.0087890625,0,0,0.0087890625,22.32421875,0)" xlink:href="#bV"/></g><g id="z"><use transform="matrix(0.0087890625,0,0,0.0087890625,0,0)" xlink:href="#bR"/><use transform="matrix(0.0087890625,0,0,0.0087890625,7.1103515625,0)" xlink:href="#bU"/><use transform="matrix(0.0087890625,0,0,0.0087890625,18.931640625,0)" xlink:href="#bS"/></g><path d="M135 0v-1490h581c339 0 533 210 533 503 0 295-197 500-540 500H440V0H135zm305-733h220c186 0 274-104 274-254s-88-251-275-251H440v505" id="bW"/><g id="A"><use transform="matrix(0.01193576388888889,0,0,0.01193576388888889,0,0)" xlink:href="#bW"/><use transform="matrix(0.01193576388888889,0,0,0.01193576388888889,15.838758680555557,0)" xlink:href="#bO"/><use transform="matrix(0.01193576388888889,0,0,0.01193576388888889,22.463107638888893,0)" xlink:href="#aZ"/><use transform="matrix(0.01193576388888889,0,0,0.01193576388888889,36.654730902777786,0)" xlink:href="#bd"/><use transform="matrix(0.01193576388888889,0,0,0.01193576388888889,51.87282986111113,0)" xlink:href="#bQ"/></g><path d="M690 20C314 20 94-261 94-744c0-482 221-766 596-766 376 0 597 284 597 766 0 483-219 764-597 764zm0-253c184 0 286-184 286-511 0-328-102-514-286-514-183 0-285 187-285 514s101 511 285 511" id="bX"/><g id="B"><use transform="matrix(0.01193576388888889,0,0,0.01193576388888889,0,0)" xlink:href="#bU"/><use transform="matrix(0.01193576388888889,0,0,0.01193576388888889,16.053602430555557,0)" xlink:href="#bX"/></g><path d="M749-1490V0H444v-1221h-10L93-980v-279l329-231h327" id="bY"/><g id="C"><use transform="matrix(0.01193576388888889,0,0,0.01193576388888889,0,0)" xlink:href="#bU"/><use transform="matrix(0.01193576388888889,0,0,0.01193576388888889,16.053602430555557,0)" xlink:href="#bY"/></g><path d="M124 0v-220l528-495c135-132 210-216 210-336 0-133-98-215-231-215-139 0-229 88-229 233H110c0-290 214-477 523-477 315 0 525 182 525 440 0 167-80 305-385 586L548-262v11h630V0H124" id="bZ"/><g id="D"><use transform="matrix(0.01193576388888889,0,0,0.01193576388888889,0,0)" xlink:href="#bU"/><use transform="matrix(0.01193576388888889,0,0,0.01193576388888889,16.053602430555557,0)" xlink:href="#bZ"/></g><path d="M659 20C335 20 103-159 99-418h307c5 112 113 185 254 185 147 0 250-83 250-204 0-123-105-209-278-209H494v-227h138c145 0 246-81 246-200 0-115-87-193-216-193-130 0-237 73-240 189H128c4-255 233-433 536-433 306 0 510 185 510 418 0 167-114 285-279 317v11c217 29 333 162 333 347 0 254-237 437-569 437" id="ca"/><g id="E"><use transform="matrix(0.01193576388888889,0,0,0.01193576388888889,0,0)" xlink:href="#bU"/><use transform="matrix(0.01193576388888889,0,0,0.01193576388888889,16.053602430555557,0)" xlink:href="#ca"/></g><path d="M101-265v-241l623-984h383v979h186v246h-186V0H814v-265H101zm719-246v-643h-12L409-523v12h411" id="cb"/><g id="F"><use transform="matrix(0.01193576388888889,0,0,0.01193576388888889,0,0)" xlink:href="#bU"/><use transform="matrix(0.01193576388888889,0,0,0.01193576388888889,16.053602430555557,0)" xlink:href="#cb"/></g><path d="M664 20c-306 0-529-183-535-438h297c6 117 110 196 238 196 149 0 255-108 255-266 0-159-108-270-261-270-89 0-178 39-224 98l-274-48 72-782h901v252H485l-39 377h8c53-72 165-124 294-124 269 0 467 204 467 490 0 300-224 515-551 515" id="cc"/><g id="G"><use transform="matrix(0.01193576388888889,0,0,0.01193576388888889,0,0)" xlink:href="#bU"/><use transform="matrix(0.01193576388888889,0,0,0.01193576388888889,16.053602430555557,0)" xlink:href="#cc"/></g><path d="M684 20C381 20 94-164 94-710c0-501 235-800 601-800 293 0 496 188 526 433H921c-25-105-108-170-226-170-197 0-301 182-301 476h10c67-130 211-208 374-208 263 0 459 201 459 481 0 301-224 518-553 518zm-2-242c147 0 258-116 258-268 0-150-108-266-256-266-146 0-259 121-259 267 0 147 109 267 257 267" id="cd"/><g id="H"><use transform="matrix(0.01193576388888889,0,0,0.01193576388888889,0,0)" xlink:href="#bU"/><use transform="matrix(0.01193576388888889,0,0,0.01193576388888889,16.053602430555557,0)" xlink:href="#cd"/></g><path d="M177 0l620-1228v-10H75v-252h1041v256L494 0H177" id="ce"/><g id="I"><use transform="matrix(0.01193576388888889,0,0,0.01193576388888889,0,0)" xlink:href="#bU"/><use transform="matrix(0.01193576388888889,0,0,0.01193576388888889,16.053602430555557,0)" xlink:href="#ce"/></g><g id="J"><use transform="matrix(0.01193576388888889,0,0,0.01193576388888889,0,0)" xlink:href="#bT"/><use transform="matrix(0.01193576388888889,0,0,0.01193576388888889,18.345269097222225,0)" xlink:href="#bX"/></g><g id="K"><use transform="matrix(0.01193576388888889,0,0,0.01193576388888889,0,0)" xlink:href="#bT"/><use transform="matrix(0.01193576388888889,0,0,0.01193576388888889,18.345269097222225,0)" xlink:href="#bY"/></g><g id="L"><use transform="matrix(0.01193576388888889,0,0,0.01193576388888889,0,0)" xlink:href="#bT"/><use transform="matrix(0.01193576388888889,0,0,0.01193576388888889,18.345269097222225,0)" xlink:href="#bZ"/></g><g id="M"><use transform="matrix(0.01193576388888889,0,0,0.01193576388888889,0,0)" xlink:href="#bT"/><use transform="matrix(0.01193576388888889,0,0,0.01193576388888889,18.345269097222225,0)" xlink:href="#ca"/></g><g id="N"><use transform="matrix(0.01193576388888889,0,0,0.01193576388888889,0,0)" xlink:href="#bT"/><use transform="matrix(0.01193576388888889,0,0,0.01193576388888889,18.345269097222225,0)" xlink:href="#cb"/></g><g id="O"><use transform="matrix(0.01193576388888889,0,0,0.01193576388888889,0,0)" xlink:href="#bT"/><use transform="matrix(0.01193576388888889,0,0,0.01193576388888889,18.345269097222225,0)" xlink:href="#cc"/></g><g id="P"><use transform="matrix(0.01193576388888889,0,0,0.01193576388888889,0,0)" xlink:href="#bT"/><use transform="matrix(0.01193576388888889,0,0,0.01193576388888889,18.345269097222225,0)" xlink:href="#cd"/></g><g id="Q"><use transform="matrix(0.01193576388888889,0,0,0.01193576388888889,0,0)" xlink:href="#bT"/><use transform="matrix(0.01193576388888889,0,0,0.01193576388888889,18.345269097222225,0)" xlink:href="#ce"/></g><g id="R"><use transform="matrix(0.01193576388888889,0,0,0.01193576388888889,0,0)" xlink:href="#bN"/><use transform="matrix(0.01193576388888889,0,0,0.01193576388888889,16.172960069444446,0)" xlink:href="#bX"/></g><g id="S"><use transform="matrix(0.01193576388888889,0,0,0.01193576388888889,0,0)" xlink:href="#bN"/><use transform="matrix(0.01193576388888889,0,0,0.01193576388888889,16.172960069444446,0)" xlink:href="#bY"/></g><g id="T"><use transform="matrix(0.01193576388888889,0,0,0.01193576388888889,0,0)" xlink:href="#bN"/><use transform="matrix(0.01193576388888889,0,0,0.01193576388888889,16.172960069444446,0)" xlink:href="#bZ"/></g><g id="U"><use transform="matrix(0.01193576388888889,0,0,0.01193576388888889,0,0)" xlink:href="#bN"/><use transform="matrix(0.01193576388888889,0,0,0.01193576388888889,16.172960069444446,0)" xlink:href="#ca"/></g><g id="V"><use transform="matrix(0.01193576388888889,0,0,0.01193576388888889,0,0)" xlink:href="#bN"/><use transform="matrix(0.01193576388888889,0,0,0.01193576388888889,16.172960069444446,0)" xlink:href="#cb"/></g><g id="W"><use transform="matrix(0.01193576388888889,0,0,0.01193576388888889,0,0)" xlink:href="#bN"/><use transform="matrix(0.01193576388888889,0,0,0.01193576388888889,16.172960069444446,0)" xlink:href="#cc"/></g><g id="X"><use transform="matrix(0.01193576388888889,0,0,0.01193576388888889,0,0)" xlink:href="#bN"/><use transform="matrix(0.01193576388888889,0,0,0.01193576388888889,16.172960069444446,0)" xlink:href="#cd"/></g><g id="Y"><use transform="matrix(0.01193576388888889,0,0,0.01193576388888889,0,0)" xlink:href="#bN"/><use transform="matrix(0.01193576388888889,0,0,0.01193576388888889,16.172960069444446,0)" xlink:href="#ce"/></g><path d="M52 0l541-1490h220L1361 0h-200l-149-416H398L254 0H52zm404-582h497c-103-290-145-390-251-756-108 377-145 460-246 756" id="cf"/><g id="Z"><use transform="matrix(0.0087890625,0,0,0.0087890625,0,0)" xlink:href="#cf"/><use transform="matrix(0.0087890625,0,0,0.0087890625,12.4189453125,0)" xlink:href="#bs"/><use transform="matrix(0.0087890625,0,0,0.0087890625,18.896484375,0)" xlink:href="#bg"/></g><g id="aa"><use transform="matrix(0.0087890625,0,0,0.0087890625,0,0)" xlink:href="#bf"/><use transform="matrix(0.0087890625,0,0,0.0087890625,5.888671875,0)" xlink:href="#bx"/><use transform="matrix(0.0087890625,0,0,0.0087890625,16.5322265625,0)" xlink:href="#bg"/><use transform="matrix(0.0087890625,0,0,0.0087890625,27.0263671875,0)" xlink:href="#bs"/><use transform="matrix(0.0087890625,0,0,0.0087890625,33.50390625,0)" xlink:href="#bg"/></g><g id="ab"><use transform="matrix(0.0087890625,0,0,0.0087890625,0,0)" xlink:href="#bs"/><use transform="matrix(0.0087890625,0,0,0.0087890625,6.4775390625,0)" xlink:href="#bg"/><use transform="matrix(0.0087890625,0,0,0.0087890625,16.9716796875,0)" xlink:href="#bj"/><use transform="matrix(0.0087890625,0,0,0.0087890625,32.7392578125,0)" xlink:href="#bk"/><use transform="matrix(0.0087890625,0,0,0.0087890625,42.8466796875,0)" xlink:href="#bn"/><use transform="matrix(0.0087890625,0,0,0.0087890625,47.2060546875,0)" xlink:href="#bt"/><use transform="matrix(0.0087890625,0,0,0.0087890625,57.8408203125,0)" xlink:href="#bn"/><use transform="matrix(0.0087890625,0,0,0.0087890625,62.2001953125,0)" xlink:href="#bt"/><use transform="matrix(0.0087890625,0,0,0.0087890625,72.8349609375,0)" xlink:href="#bh"/></g><g id="ac"><use transform="matrix(0.0087890625,0,0,0.0087890625,0,0)" xlink:href="#bq"/><use transform="matrix(0.0087890625,0,0,0.0087890625,10.283203125,0)" xlink:href="#br"/><use transform="matrix(0.0087890625,0,0,0.0087890625,21.076171875,0)" xlink:href="#bj"/><use transform="matrix(0.0087890625,0,0,0.0087890625,36.84375,0)" xlink:href="#bl"/><use transform="matrix(0.0087890625,0,0,0.0087890625,47.865234375,0)" xlink:href="#br"/><use transform="matrix(0.0087890625,0,0,0.0087890625,58.658203125,0)" xlink:href="#bt"/><use transform="matrix(0.0087890625,0,0,0.0087890625,69.29296875,0)" xlink:href="#bg"/><use transform="matrix(0.0087890625,0,0,0.0087890625,79.787109375,0)" xlink:href="#bt"/><use transform="matrix(0.0087890625,0,0,0.0087890625,90.421875,0)" xlink:href="#bf"/></g><g id="ad"><use transform="matrix(0.0087890625,0,0,0.0087890625,0,0)" xlink:href="#bf"/><use transform="matrix(0.0087890625,0,0,0.0087890625,5.712890625,0)" xlink:href="#br"/></g><path d="M65 0l393-574-370-544h210c88 136 192 297 267 435 67-142 176-302 264-435h206L661-564 1053 0H844c-94-144-206-310-287-458C484-308 366-142 273 0H65" id="cg"/><g id="ae"><use transform="matrix(0.0087890625,0,0,0.0087890625,0,0)" xlink:href="#bg"/><use transform="matrix(0.0087890625,0,0,0.0087890625,10.08984375,0)" xlink:href="#cg"/><use transform="matrix(0.0087890625,0,0,0.0087890625,20.267578125,0)" xlink:href="#bf"/><use transform="matrix(0.0087890625,0,0,0.0087890625,26.15625,0)" xlink:href="#bs"/><use transform="matrix(0.0087890625,0,0,0.0087890625,32.9326171875,0)" xlink:href="#bk"/><use transform="matrix(0.0087890625,0,0,0.0087890625,43.0400390625,0)" xlink:href="#bq"/><use transform="matrix(0.0087890625,0,0,0.0087890625,53.3232421875,0)" xlink:href="#bf"/></g><path d="M383-449c-3-277 82-343 222-425 88-53 156-134 156-250 0-139-108-227-243-227-118 0-235 70-246 236H82c10-251 200-395 436-395 259 0 427 165 427 393 0 161-74 273-203 352-132 80-180 132-178 316H383zm93 462c-75 0-135-60-135-134 0-75 60-135 135-135 74 0 134 60 134 135 0 74-60 134-134 134" id="ch"/><g id="af"><use transform="matrix(0.0087890625,0,0,0.0087890625,0,0)" xlink:href="#bw"/><use transform="matrix(0.0087890625,0,0,0.0087890625,6.662109375,0)" xlink:href="#bs"/><use transform="matrix(0.0087890625,0,0,0.0087890625,13.1396484375,0)" xlink:href="#br"/><use transform="matrix(0.0087890625,0,0,0.0087890625,23.9326171875,0)" xlink:href="#bj"/><use transform="matrix(0.0087890625,0,0,0.0087890625,39.7001953125,0)" xlink:href="#ch"/></g><path d="M180 0v-1490h224l606 953c40 63 108 177 176 312-27-437-7-821-13-1265h190V0h-226C860-448 622-778 356-1262c27 476 11 792 15 1262H180" id="ci"/><g id="ag"><use transform="matrix(0.0087890625,0,0,0.0087890625,0,0)" xlink:href="#ci"/><use transform="matrix(0.0087890625,0,0,0.0087890625,13.5615234375,0)" xlink:href="#br"/></g><path d="M659 0H135v-1490h529c448 0 721 280 721 744 0 466-273 746-726 746zM440-263h204c287 0 437-148 437-483 0-333-150-481-435-481H440v964" id="cj"/><path d="M789 20C394 20 94-260 94-744c0-487 300-766 695-766s695 279 695 766c0 485-300 764-695 764zm0-271c231 0 385-174 385-493 0-321-154-495-385-495s-385 175-385 495c0 319 154 493 385 493" id="ck"/><path d="M135 0v-1490h340l471 754c59 97 122 210 187 365-32-387-14-721-19-1119h312V0h-341C855-382 627-689 427-1113c32 420 16 695 20 1113H135" id="cl"/><g id="ah"><use transform="matrix(0.013020833333333334,0,0,0.013020833333333334,0,0)" xlink:href="#cj"/><use transform="matrix(0.013020833333333334,0,0,0.013020833333333334,19.2578125,0)" xlink:href="#ck"/><use transform="matrix(0.013020833333333334,0,0,0.013020833333333334,39.8046875,0)" xlink:href="#cl"/><use transform="matrix(0.013020833333333334,0,0,0.013020833333333334,60.130208333333336,0)" xlink:href="#aV"/></g><g id="ai"><use transform="matrix(0.0087890625,0,0,0.0087890625,0,0)" xlink:href="#be"/><use transform="matrix(0.0087890625,0,0,0.0087890625,11.548828125,0)" xlink:href="#bg"/><use transform="matrix(0.0087890625,0,0,0.0087890625,22.04296875,0)" xlink:href="#bm"/><use transform="matrix(0.0087890625,0,0,0.0087890625,26.40234375,0)" xlink:href="#bg"/><use transform="matrix(0.0087890625,0,0,0.0087890625,36.896484375,0)" xlink:href="#bq"/><use transform="matrix(0.0087890625,0,0,0.0087890625,47.1796875,0)" xlink:href="#bf"/></g><g id="aj"><use transform="matrix(0.0087890625,0,0,0.0087890625,0,0)" xlink:href="#bf"/><use transform="matrix(0.0087890625,0,0,0.0087890625,5.888671875,0)" xlink:href="#bx"/><use transform="matrix(0.0087890625,0,0,0.0087890625,16.5322265625,0)" xlink:href="#bg"/></g><g id="ak"><use transform="matrix(0.0087890625,0,0,0.0087890625,0,0)" xlink:href="#bt"/><use transform="matrix(0.0087890625,0,0,0.0087890625,10.634765625,0)" xlink:href="#bg"/><use transform="matrix(0.0087890625,0,0,0.0087890625,20.724609375,0)" xlink:href="#cg"/><use transform="matrix(0.0087890625,0,0,0.0087890625,30.90234375,0)" xlink:href="#bf"/></g><g id="al"><use transform="matrix(0.0087890625,0,0,0.0087890625,0,0)" xlink:href="#bl"/><use transform="matrix(0.0087890625,0,0,0.0087890625,11.021484375,0)" xlink:href="#bn"/><use transform="matrix(0.0087890625,0,0,0.0087890625,15.380859375,0)" xlink:href="#cg"/><use transform="matrix(0.0087890625,0,0,0.0087890625,24.802734375,0)" xlink:href="#bg"/><use transform="matrix(0.0087890625,0,0,0.0087890625,35.296875,0)" xlink:href="#bm"/></g><g id="am"><use transform="matrix(0.0087890625,0,0,0.0087890625,0,0)" xlink:href="#bf"/><use transform="matrix(0.0087890625,0,0,0.0087890625,5.712890625,0)" xlink:href="#br"/></g><g id="an"><use transform="matrix(0.0087890625,0,0,0.0087890625,0,0)" xlink:href="#bg"/><use transform="matrix(0.0087890625,0,0,0.0087890625,10.08984375,0)" xlink:href="#cg"/><use transform="matrix(0.0087890625,0,0,0.0087890625,20.267578125,0)" xlink:href="#bf"/><use transform="matrix(0.0087890625,0,0,0.0087890625,26.15625,0)" xlink:href="#bs"/><use transform="matrix(0.0087890625,0,0,0.0087890625,32.9326171875,0)" xlink:href="#bk"/><use transform="matrix(0.0087890625,0,0,0.0087890625,43.0400390625,0)" xlink:href="#bq"/><use transform="matrix(0.0087890625,0,0,0.0087890625,53.3232421875,0)" xlink:href="#bf"/></g><g id="ao"><use transform="matrix(0.0087890625,0,0,0.0087890625,0,0)" xlink:href="#bw"/><use transform="matrix(0.0087890625,0,0,0.0087890625,6.662109375,0)" xlink:href="#bs"/><use transform="matrix(0.0087890625,0,0,0.0087890625,13.1396484375,0)" xlink:href="#br"/><use transform="matrix(0.0087890625,0,0,0.0087890625,23.9326171875,0)" xlink:href="#bj"/></g><g id="ap"><use transform="matrix(0.0087890625,0,0,0.0087890625,0,0)" xlink:href="#bf"/><use transform="matrix(0.0087890625,0,0,0.0087890625,5.888671875,0)" xlink:href="#bx"/><use transform="matrix(0.0087890625,0,0,0.0087890625,16.5322265625,0)" xlink:href="#bk"/><use transform="matrix(0.0087890625,0,0,0.0087890625,26.6396484375,0)" xlink:href="#bf"/></g><g id="aq"><use transform="matrix(0.0087890625,0,0,0.0087890625,0,0)" xlink:href="#bl"/><use transform="matrix(0.0087890625,0,0,0.0087890625,11.021484375,0)" xlink:href="#bm"/><use transform="matrix(0.0087890625,0,0,0.0087890625,15.380859375,0)" xlink:href="#bk"/><use transform="matrix(0.0087890625,0,0,0.0087890625,25.48828125,0)" xlink:href="#bt"/><use transform="matrix(0.0087890625,0,0,0.0087890625,36.123046875,0)" xlink:href="#bg"/></g><path d="M577 24c-279 0-473-224-473-580 0-354 195-576 474-576 218 0 287 134 324 193h14v-551h180V0H922v-173h-20C865-111 790 24 577 24zm27-161c203 0 314-172 314-421 0-247-108-413-314-413-212 0-317 181-317 413 0 235 108 421 317 421" id="cm"/><g id="ar"><use transform="matrix(0.0087890625,0,0,0.0087890625,0,0)" xlink:href="#bq"/><use transform="matrix(0.0087890625,0,0,0.0087890625,10.283203125,0)" xlink:href="#br"/><use transform="matrix(0.0087890625,0,0,0.0087890625,21.076171875,0)" xlink:href="#bs"/><use transform="matrix(0.0087890625,0,0,0.0087890625,28.1337890625,0)" xlink:href="#bs"/><use transform="matrix(0.0087890625,0,0,0.0087890625,34.611328125,0)" xlink:href="#bg"/><use transform="matrix(0.0087890625,0,0,0.0087890625,45.10546875,0)" xlink:href="#bv"/><use transform="matrix(0.0087890625,0,0,0.0087890625,54.6064453125,0)" xlink:href="#bl"/><use transform="matrix(0.0087890625,0,0,0.0087890625,65.6279296875,0)" xlink:href="#br"/><use transform="matrix(0.0087890625,0,0,0.0087890625,76.4208984375,0)" xlink:href="#bt"/><use transform="matrix(0.0087890625,0,0,0.0087890625,87.0556640625,0)" xlink:href="#cm"/><use transform="matrix(0.0087890625,0,0,0.0087890625,98.0771484375,0)" xlink:href="#bn"/><use transform="matrix(0.0087890625,0,0,0.0087890625,102.4365234375,0)" xlink:href="#bt"/><use transform="matrix(0.0087890625,0,0,0.0087890625,113.0712890625,0)" xlink:href="#bh"/></g><path d="M180 0v-1490h901v168H370v510h643v168H370V0H180" id="cn"/><g id="as"><use transform="matrix(0.0087890625,0,0,0.0087890625,0,0)" xlink:href="#cn"/><use transform="matrix(0.0087890625,0,0,0.0087890625,9.9140625,0)" xlink:href="#br"/><use transform="matrix(0.0087890625,0,0,0.0087890625,20.70703125,0)" xlink:href="#bs"/></g><path d="M128 359l88-567h206L266 359H128" id="co"/><g id="at"><use transform="matrix(0.0087890625,0,0,0.0087890625,0,0)" xlink:href="#bg"/><use transform="matrix(0.0087890625,0,0,0.0087890625,10.08984375,0)" xlink:href="#cg"/><use transform="matrix(0.0087890625,0,0,0.0087890625,19.916015625,0)" xlink:href="#bk"/><use transform="matrix(0.0087890625,0,0,0.0087890625,30.0234375,0)" xlink:href="#bj"/><use transform="matrix(0.0087890625,0,0,0.0087890625,45.791015625,0)" xlink:href="#bl"/><use transform="matrix(0.0087890625,0,0,0.0087890625,56.8125,0)" xlink:href="#bm"/><use transform="matrix(0.0087890625,0,0,0.0087890625,61.171875,0)" xlink:href="#bg"/><use transform="matrix(0.0087890625,0,0,0.0087890625,71.666015625,0)" xlink:href="#co"/></g><path d="M409 0L70-1118h191c89 329 165 560 243 925 75-353 154-601 240-925h192c85 325 161 564 235 922 77-354 157-598 244-922h191L1267 0h-179c-86-307-176-590-250-913C763-588 675-308 588 0H409" id="cp"/><g id="au"><use transform="matrix(0.0087890625,0,0,0.0087890625,0,0)" xlink:href="#cp"/><use transform="matrix(0.0087890625,0,0,0.0087890625,14.4052734375,0)" xlink:href="#bg"/></g><path d="M537 14c-226 0-379-139-379-422v-710h180v695c0 172 97 275 253 275 160 0 281-109 281-300v-670h181V0H879v-209C806-46 684 14 537 14" id="cq"/><path d="M232-923l-22-567h194l-22 567H232" id="cr"/><path d="M481 0L54-1118h197c107 314 236 620 325 951 87-331 217-637 324-951h197L670 0H481" id="cs"/><g id="av"><use transform="matrix(0.0087890625,0,0,0.0087890625,0,0)" xlink:href="#bq"/><use transform="matrix(0.0087890625,0,0,0.0087890625,10.283203125,0)" xlink:href="#br"/><use transform="matrix(0.0087890625,0,0,0.0087890625,21.076171875,0)" xlink:href="#cq"/><use transform="matrix(0.0087890625,0,0,0.0087890625,31.7197265625,0)" xlink:href="#bm"/><use transform="matrix(0.0087890625,0,0,0.0087890625,36.0791015625,0)" xlink:href="#cm"/><use transform="matrix(0.0087890625,0,0,0.0087890625,47.1005859375,0)" xlink:href="#cr"/><use transform="matrix(0.0087890625,0,0,0.0087890625,52.4970703125,0)" xlink:href="#cs"/><use transform="matrix(0.0087890625,0,0,0.0087890625,62.26171875,0)" xlink:href="#bg"/></g><g id="aw"><use transform="matrix(0.0087890625,0,0,0.0087890625,0,0)" xlink:href="#bv"/><use transform="matrix(0.0087890625,0,0,0.0087890625,9.5009765625,0)" xlink:href="#bg"/><use transform="matrix(0.0087890625,0,0,0.0087890625,19.9951171875,0)" xlink:href="#bm"/><use transform="matrix(0.0087890625,0,0,0.0087890625,24.3544921875,0)" xlink:href="#bg"/><use transform="matrix(0.0087890625,0,0,0.0087890625,34.8486328125,0)" xlink:href="#bq"/><use transform="matrix(0.0087890625,0,0,0.0087890625,45.1318359375,0)" xlink:href="#bf"/><use transform="matrix(0.0087890625,0,0,0.0087890625,50.8447265625,0)" xlink:href="#bg"/><use transform="matrix(0.0087890625,0,0,0.0087890625,61.3388671875,0)" xlink:href="#cm"/></g><path d="M180 0v-1490h528c311 0 458 177 458 395 0 191-114 278-244 313v14c139 9 302 137 302 371 0 225-148 397-499 397H180zm190-168h350c232 0 321-102 321-231 0-149-120-277-311-277H370v508zm0-668h328c160 0 286-101 286-255 0-129-87-231-280-231H370v486" id="ct"/><path d="M120-303v-155l652-1032h231v1020h202v167h-202V0H821v-303H120zm702-167v-782h-12L323-482v12h499" id="cu"/><g id="ax"><use transform="matrix(0.0087890625,0,0,0.0087890625,0,0)" xlink:href="#ct"/><use transform="matrix(0.0087890625,0,0,0.0087890625,11.77734375,0)" xlink:href="#cu"/></g><g id="ay"><use transform="matrix(0.0087890625,0,0,0.0087890625,0,0)" xlink:href="#br"/><use transform="matrix(0.0087890625,0,0,0.0087890625,10.79296875,0)" xlink:href="#cq"/><use transform="matrix(0.0087890625,0,0,0.0087890625,21.4365234375,0)" xlink:href="#bs"/></g><g id="az"><use transform="matrix(0.0087890625,0,0,0.0087890625,0,0)" xlink:href="#bo"/><use transform="matrix(0.0087890625,0,0,0.0087890625,11.021484375,0)" xlink:href="#bn"/><use transform="matrix(0.0087890625,0,0,0.0087890625,15.380859375,0)" xlink:href="#bf"/></g><g id="aA"><use transform="matrix(0.0087890625,0,0,0.0087890625,0,0)" xlink:href="#bw"/><use transform="matrix(0.0087890625,0,0,0.0087890625,6.662109375,0)" xlink:href="#bs"/><use transform="matrix(0.0087890625,0,0,0.0087890625,13.1396484375,0)" xlink:href="#br"/><use transform="matrix(0.0087890625,0,0,0.0087890625,23.9326171875,0)" xlink:href="#bj"/></g><g id="aB"><use transform="matrix(0.0087890625,0,0,0.0087890625,0,0)" xlink:href="#bf"/><use transform="matrix(0.0087890625,0,0,0.0087890625,5.888671875,0)" xlink:href="#bx"/><use transform="matrix(0.0087890625,0,0,0.0087890625,16.5322265625,0)" xlink:href="#bg"/><use transform="matrix(0.0087890625,0,0,0.0087890625,27.0263671875,0)" xlink:href="#bs"/><use transform="matrix(0.0087890625,0,0,0.0087890625,33.50390625,0)" xlink:href="#bg"/></g><g id="aC"><use transform="matrix(0.0087890625,0,0,0.0087890625,0,0)" xlink:href="#bs"/><use transform="matrix(0.0087890625,0,0,0.0087890625,6.4775390625,0)" xlink:href="#bg"/><use transform="matrix(0.0087890625,0,0,0.0087890625,16.9716796875,0)" xlink:href="#bj"/><use transform="matrix(0.0087890625,0,0,0.0087890625,32.7392578125,0)" xlink:href="#bk"/><use transform="matrix(0.0087890625,0,0,0.0087890625,42.8466796875,0)" xlink:href="#bn"/><use transform="matrix(0.0087890625,0,0,0.0087890625,47.2060546875,0)" xlink:href="#bt"/><use transform="matrix(0.0087890625,0,0,0.0087890625,57.8408203125,0)" xlink:href="#bn"/><use transform="matrix(0.0087890625,0,0,0.0087890625,62.2001953125,0)" xlink:href="#bt"/><use transform="matrix(0.0087890625,0,0,0.0087890625,72.8349609375,0)" xlink:href="#bh"/></g><g id="aD"><use transform="matrix(0.0087890625,0,0,0.0087890625,0,0)" xlink:href="#bl"/><use transform="matrix(0.0087890625,0,0,0.0087890625,11.021484375,0)" xlink:href="#bn"/><use transform="matrix(0.0087890625,0,0,0.0087890625,15.380859375,0)" xlink:href="#cg"/><use transform="matrix(0.0087890625,0,0,0.0087890625,24.802734375,0)" xlink:href="#bg"/><use transform="matrix(0.0087890625,0,0,0.0087890625,35.296875,0)" xlink:href="#bm"/><use transform="matrix(0.0087890625,0,0,0.0087890625,39.65625,0)" xlink:href="#bv"/></g><g id="aE"><use transform="matrix(0.0087890625,0,0,0.0087890625,0,0)" xlink:href="#bo"/><use transform="matrix(0.0087890625,0,0,0.0087890625,11.021484375,0)" xlink:href="#bg"/></g><g id="aF"><use transform="matrix(0.0087890625,0,0,0.0087890625,0,0)" xlink:href="#bg"/><use transform="matrix(0.0087890625,0,0,0.0087890625,10.08984375,0)" xlink:href="#cg"/><use transform="matrix(0.0087890625,0,0,0.0087890625,20.267578125,0)" xlink:href="#bf"/><use transform="matrix(0.0087890625,0,0,0.0087890625,26.15625,0)" xlink:href="#bs"/><use transform="matrix(0.0087890625,0,0,0.0087890625,32.9326171875,0)" xlink:href="#bk"/><use transform="matrix(0.0087890625,0,0,0.0087890625,43.0400390625,0)" xlink:href="#bq"/><use transform="matrix(0.0087890625,0,0,0.0087890625,53.3232421875,0)" xlink:href="#bf"/><use transform="matrix(0.0087890625,0,0,0.0087890625,59.0361328125,0)" xlink:href="#bg"/><use transform="matrix(0.0087890625,0,0,0.0087890625,69.5302734375,0)" xlink:href="#cm"/></g><g id="aG"><use transform="matrix(0.0087890625,0,0,0.0087890625,0,0)" xlink:href="#bl"/><use transform="matrix(0.0087890625,0,0,0.0087890625,11.021484375,0)" xlink:href="#bm"/><use transform="matrix(0.0087890625,0,0,0.0087890625,15.380859375,0)" xlink:href="#bk"/><use transform="matrix(0.0087890625,0,0,0.0087890625,25.48828125,0)" xlink:href="#bt"/><use transform="matrix(0.0087890625,0,0,0.0087890625,36.123046875,0)" xlink:href="#bg"/><use transform="matrix(0.0087890625,0,0,0.0087890625,46.6171875,0)" xlink:href="#ch"/></g><path d="M600 0v-610L52-1490h220l295 481c50 82 90 150 130 243 40-96 80-164 128-243l294-481h219L790-610V0H600" id="cv"/><g id="aH"><use transform="matrix(0.0087890625,0,0,0.0087890625,0,0)" xlink:href="#cv"/><use transform="matrix(0.0087890625,0,0,0.0087890625,10.8369140625,0)" xlink:href="#bg"/><use transform="matrix(0.0087890625,0,0,0.0087890625,21.3310546875,0)" xlink:href="#bv"/></g><g id="aI"><use transform="matrix(0.0087890625,0,0,0.0087890625,0,0)" xlink:href="#bo"/><use transform="matrix(0.0087890625,0,0,0.0087890625,10.669921875,0)" xlink:href="#bp"/><use transform="matrix(0.0087890625,0,0,0.0087890625,21.0498046875,0)" xlink:href="#bf"/><use transform="matrix(0.0087890625,0,0,0.0087890625,26.7626953125,0)" xlink:href="#bg"/></g><g id="aJ"><use transform="matrix(0.0087890625,0,0,0.0087890625,0,0)" xlink:href="#bl"/><use transform="matrix(0.0087890625,0,0,0.0087890625,11.021484375,0)" xlink:href="#bn"/><use transform="matrix(0.0087890625,0,0,0.0087890625,15.380859375,0)" xlink:href="#cg"/><use transform="matrix(0.0087890625,0,0,0.0087890625,24.802734375,0)" xlink:href="#bg"/><use transform="matrix(0.0087890625,0,0,0.0087890625,35.296875,0)" xlink:href="#bm"/></g><g id="aK"><use transform="matrix(0.0087890625,0,0,0.0087890625,0,0)" xlink:href="#bq"/><use transform="matrix(0.0087890625,0,0,0.0087890625,10.283203125,0)" xlink:href="#br"/><use transform="matrix(0.0087890625,0,0,0.0087890625,21.076171875,0)" xlink:href="#bs"/><use transform="matrix(0.0087890625,0,0,0.0087890625,28.1337890625,0)" xlink:href="#bs"/><use transform="matrix(0.0087890625,0,0,0.0087890625,34.611328125,0)" xlink:href="#bg"/><use transform="matrix(0.0087890625,0,0,0.0087890625,45.10546875,0)" xlink:href="#bv"/><use transform="matrix(0.0087890625,0,0,0.0087890625,54.6064453125,0)" xlink:href="#bl"/><use transform="matrix(0.0087890625,0,0,0.0087890625,65.6279296875,0)" xlink:href="#br"/><use transform="matrix(0.0087890625,0,0,0.0087890625,76.4208984375,0)" xlink:href="#bt"/><use transform="matrix(0.0087890625,0,0,0.0087890625,87.0556640625,0)" xlink:href="#cm"/><use transform="matrix(0.0087890625,0,0,0.0087890625,98.0771484375,0)" xlink:href="#bn"/><use transform="matrix(0.0087890625,0,0,0.0087890625,102.4365234375,0)" xlink:href="#bt"/><use transform="matrix(0.0087890625,0,0,0.0087890625,113.0712890625,0)" xlink:href="#bh"/></g><g id="aL"><use transform="matrix(0.0087890625,0,0,0.0087890625,0,0)" xlink:href="#bq"/><use transform="matrix(0.0087890625,0,0,0.0087890625,10.283203125,0)" xlink:href="#cq"/><use transform="matrix(0.0087890625,0,0,0.0087890625,20.9267578125,0)" xlink:href="#bs"/><use transform="matrix(0.0087890625,0,0,0.0087890625,27.984375,0)" xlink:href="#bs"/><use transform="matrix(0.0087890625,0,0,0.0087890625,34.4619140625,0)" xlink:href="#bg"/><use transform="matrix(0.0087890625,0,0,0.0087890625,44.9560546875,0)" xlink:href="#bt"/><use transform="matrix(0.0087890625,0,0,0.0087890625,55.5908203125,0)" xlink:href="#bf"/></g><g id="aM"><use transform="matrix(0.0087890625,0,0,0.0087890625,0,0)" xlink:href="#cf"/><use transform="matrix(0.0087890625,0,0,0.0087890625,12.4189453125,0)" xlink:href="#bl"/><use transform="matrix(0.0087890625,0,0,0.0087890625,23.4404296875,0)" xlink:href="#bl"/><use transform="matrix(0.0087890625,0,0,0.0087890625,34.4619140625,0)" xlink:href="#bg"/><use transform="matrix(0.0087890625,0,0,0.0087890625,44.9560546875,0)" xlink:href="#bt"/><use transform="matrix(0.0087890625,0,0,0.0087890625,55.5908203125,0)" xlink:href="#cm"/></g><g id="aN"><use transform="matrix(0.0087890625,0,0,0.0087890625,0,0)" xlink:href="#bf"/><use transform="matrix(0.0087890625,0,0,0.0087890625,5.888671875,0)" xlink:href="#bx"/><use transform="matrix(0.0087890625,0,0,0.0087890625,16.5322265625,0)" xlink:href="#bk"/><use transform="matrix(0.0087890625,0,0,0.0087890625,26.6396484375,0)" xlink:href="#bf"/></g><g id="aO"><use transform="matrix(0.0087890625,0,0,0.0087890625,0,0)" xlink:href="#bn"/><use transform="matrix(0.0087890625,0,0,0.0087890625,4.359375,0)" xlink:href="#bf"/><use transform="matrix(0.0087890625,0,0,0.0087890625,10.072265625,0)" xlink:href="#bv"/></g><g id="aP"><use transform="matrix(0.0087890625,0,0,0.0087890625,0,0)" xlink:href="#bl"/><use transform="matrix(0.0087890625,0,0,0.0087890625,11.021484375,0)" xlink:href="#bm"/><use transform="matrix(0.0087890625,0,0,0.0087890625,15.380859375,0)" xlink:href="#bk"/><use transform="matrix(0.0087890625,0,0,0.0087890625,25.48828125,0)" xlink:href="#bt"/><use transform="matrix(0.0087890625,0,0,0.0087890625,36.123046875,0)" xlink:href="#bg"/></g><g id="aQ"><use transform="matrix(0.0087890625,0,0,0.0087890625,0,0)" xlink:href="#bw"/><use transform="matrix(0.0087890625,0,0,0.0087890625,6.662109375,0)" xlink:href="#bn"/><use transform="matrix(0.0087890625,0,0,0.0087890625,11.021484375,0)" xlink:href="#bm"/><use transform="matrix(0.0087890625,0,0,0.0087890625,15.380859375,0)" xlink:href="#bg"/></g><path d="M180 0v-1490h190v1322h690V0H180" id="cw"/><path d="M158 0v-1490h180v865h22l478-493h223L593-638 1096 0H865L456-523 338-412V0H158" id="cx"/><g id="aR"><use transform="matrix(0.0087890625,0,0,0.0087890625,0,0)" xlink:href="#cw"/><use transform="matrix(0.0087890625,0,0,0.0087890625,10.177734375,0)" xlink:href="#bn"/><use transform="matrix(0.0087890625,0,0,0.0087890625,14.537109375,0)" xlink:href="#cx"/><use transform="matrix(0.0087890625,0,0,0.0087890625,24.01171875,0)" xlink:href="#bg"/></g><path d="M154 0v-137l495-537c165-179 249-281 249-418 0-156-121-253-280-253-170 0-278 110-278 278H158c0-264 200-443 465-443 266 0 455 183 455 416 0 161-73 288-336 568L416-179v12h687V0H154" id="cy"/><path d="M295 13c-75 0-135-60-135-135s60-135 135-135 135 60 135 135S370 13 295 13" id="cz"/><g id="aS"><use transform="matrix(0.0087890625,0,0,0.0087890625,0,0)" xlink:href="#ct"/><use transform="matrix(0.0087890625,0,0,0.0087890625,11.77734375,0)" xlink:href="#cy"/><use transform="matrix(0.0087890625,0,0,0.0087890625,22.7548828125,0)" xlink:href="#cz"/><use transform="matrix(0.0087890625,0,0,0.0087890625,27.9404296875,0)" xlink:href="#bo"/><use transform="matrix(0.0087890625,0,0,0.0087890625,38.9619140625,0)" xlink:href="#bj"/><use transform="matrix(0.0087890625,0,0,0.0087890625,54.7294921875,0)" xlink:href="#bl"/><path fill="#8080ff" d="M-.9 3.67h67.55V4.9H-.9z"/></g><g id="aT"><use transform="matrix(0.0087890625,0,0,0.0087890625,0,0)" xlink:href="#bw"/><use transform="matrix(0.0087890625,0,0,0.0087890625,6.134765625,0)" xlink:href="#br"/><use transform="matrix(0.0087890625,0,0,0.0087890625,16.927734375,0)" xlink:href="#bs"/></g><g id="aU"><use transform="matrix(0.0087890625,0,0,0.0087890625,0,0)" xlink:href="#ct"/><use transform="matrix(0.0087890625,0,0,0.0087890625,11.77734375,0)" xlink:href="#cy"/></g></defs></g></svg>